<svg xmlns="http://www.w3.org/2000/svg" xmlns:xlink="http://www.w3.org/1999/xlink" version="1.1" x="0px" y="0px" viewBox="0 0 91 113.75" style="enable-background:new 0 0 91 91;" xml:space="preserve"><g><circle cx="82.1" cy="48.2" r="4.5"/><path d="M62.2,23h6.6c0.7,1.7,2.3,2.8,4.2,2.8c2.5,0,4.5-2,4.5-4.5s-2-4.5-4.5-4.5c-1.9,0-3.5,1.2-4.2,2.8h-6.6   c-0.5-0.7-1.4-1.2-2.4-1.2c-1.6,0-2.9,1.3-2.9,2.9c0,1,0.5,1.8,1.2,2.4v4.7h-9.6v-4.7c0.7-0.5,1.2-1.4,1.2-2.4   c0-1.6-1.3-2.9-2.9-2.9c-1.6,0-2.9,1.3-2.9,2.9c0,1,0.5,1.8,1.2,2.4v4.7h-9.6v-4.7c0.7-0.5,1.2-1.4,1.2-2.4c0-1-0.5-1.8-1.2-2.4   v-4.2c1.7-0.7,2.8-2.3,2.8-4.2c0-2.5-2-4.5-4.5-4.5c-2.5,0-4.5,2-4.5,4.5c0,1.9,1.2,3.5,2.8,4.2v4.2c-0.7,0.5-1.2,1.4-1.2,2.4   c0,1,0.5,1.8,1.2,2.4v4.7h-5.7v5.2h-4.3c-0.5-0.7-1.4-1.2-2.4-1.2c-1,0-1.8,0.5-2.4,1.2H7.8V39C6.2,39.6,5,41.3,5,43.2   c0,2.5,2,4.5,4.5,4.5s4.5-2,4.5-4.5c0-1.9-1.2-3.5-2.8-4.2v-2h6.3c0.5,0.7,1.4,1.2,2.4,1.2c1,0,1.8-0.5,2.4-1.2h4.4v9.6h-4.4   c-0.5-0.7-1.4-1.2-2.4-1.2c-1.6,0-2.9,1.3-2.9,2.9c0,1.6,1.3,2.9,2.9,2.9c1,0,1.8-0.5,2.4-1.2h4.3v9.6h-4.4   c-0.5-0.7-1.4-1.2-2.4-1.2c-1,0-1.8,0.5-2.4,1.2h-3.8c-0.7-1.7-2.3-2.8-4.2-2.8c-2.5,0-4.5,2-4.5,4.5s2,4.5,4.5,4.5   c1.9,0,3.5-1.2,4.2-2.8h3.8c0.5,0.7,1.4,1.2,2.4,1.2c1,0,1.8-0.5,2.4-1.2h4.3v5h5.7v4.7c-0.1,0.1-0.2,0.2-0.4,0.3h-7.8   c-0.7-1.7-2.3-2.8-4.2-2.8c-2.5,0-4.5,2-4.5,4.5c0,2.5,2,4.5,4.5,4.5c1.9,0,3.5-1.2,4.2-2.8h7.3c0.5,0.9,1.4,1.6,2.6,1.6   c1.6,0,2.9-1.3,2.9-2.9c0-1-0.5-1.8-1.2-2.4v-4.7h9.6v4.7c-0.7,0.5-1.2,1.4-1.2,2.4c0,1.6,1.3,2.9,2.9,2.9c1.6,0,2.9-1.3,2.9-2.9   c0-1-0.5-1.8-1.2-2.4v-4.7h9.6v4.7c-0.7,0.5-1.2,1.4-1.2,2.4c0,1.6,1.3,2.9,2.9,2.9c1.6,0,2.9-1.3,2.9-2.9c0-1-0.5-1.8-1.2-2.4   v-4.7c2.7-0.1,4.8-2.3,4.8-5h4.3c0.2,0.3,0.4,0.5,0.7,0.7v6.8c-1.7,0.7-2.8,2.3-2.8,4.2c0,2.5,2,4.5,4.5,4.5c2.5,0,4.5-2,4.5-4.5   c0-1.9-1.2-3.5-2.8-4.2v-6.8c0.7-0.5,1.2-1.4,1.2-2.4c0-1.6-1.3-2.9-2.9-2.9c-1,0-1.8,0.5-2.4,1.2h-4.3v-9.6h4.3   c0.5,0.7,1.4,1.2,2.4,1.2c1.6,0,2.9-1.3,2.9-2.9c0-1.6-1.3-2.9-2.9-2.9c-1,0-1.8,0.5-2.4,1.2h-4.4v-9.6h4.3   c0.5,0.7,1.4,1.2,2.4,1.2c1.6,0,2.9-1.3,2.9-2.9s-1.3-2.9-2.9-2.9c-1,0-1.8,0.5-2.4,1.2h-4.3v-5.2h-4.8v-4.7   C61.8,23.5,62,23.2,62.2,23z M52.5,42.2v12h-12v-12H52.5z"/></g><text x="0" y="106" fill="#000000" font-size="5px" font-weight="bold" font-family="'Helvetica Neue', Helvetica, Arial-Unicode, Arial, Sans-serif">Created by BomSymbols</text><text x="0" y="111" fill="#000000" font-size="5px" font-weight="bold" font-family="'Helvetica Neue', Helvetica, Arial-Unicode, Arial, Sans-serif">from the Noun Project</text></svg>