<svg id="svg" version="1.1" width="400" height="400" viewBox="0 0 400 400" xmlns="http://www.w3.org/2000/svg" xmlns:xlink="http://www.w3.org/1999/xlink" ><g id="svgg"><path id="path0" d="M150.677 37.273 C 124.905 41.890,103.298 50.621,83.521 64.409 C 1.859 121.344,-11.630 235.819,54.608 309.807 C 79.056 337.116,113.555 356.266,148.758 362.068 C 150.310 362.324,151.792 362.581,152.051 362.639 C 152.489 362.737,152.548 362.580,152.872 360.435 C 153.288 357.685,153.697 358.147,150.339 357.574 C 57.828 341.774,-1.127 250.537,22.337 159.481 C 37.871 99.199,88.517 52.542,149.549 42.289 C 151.535 41.955,153.194 41.658,153.235 41.628 C 153.313 41.571,152.875 38.405,152.667 37.528 C 152.537 36.980,152.408 36.963,150.677 37.273 M271.222 53.330 C 269.008 57.085,267.163 60.224,267.120 60.305 C 267.078 60.387,268.084 61.090,269.357 61.869 C 368.061 122.271,372.750 264.475,278.264 331.969 C 275.344 334.055,267.526 339.154,266.957 339.344 C 266.806 339.394,274.604 352.971,275.070 353.470 C 275.539 353.970,290.938 343.301,297.404 337.996 C 384.962 266.156,384.690 132.859,296.840 61.279 C 290.662 56.245,276.586 46.503,275.490 46.501 C 275.356 46.501,273.435 49.574,271.222 53.330 M270.655 178.781 L 270.655 181.716 274.153 181.716 L 277.652 181.716 277.652 178.781 L 277.652 175.847 274.153 175.847 L 270.655 175.847 270.655 178.781 M149.887 194.582 L 149.887 212.867 153.273 212.867 L 156.659 212.867 156.659 194.582 L 156.659 176.298 153.273 176.298 L 149.887 176.298 149.887 194.582 M93.747 185.056 C 92.316 185.568,90.994 186.459,90.327 187.362 C 89.597 188.349,89.391 188.198,89.391 186.682 L 89.391 185.327 86.117 185.327 L 82.844 185.327 82.844 199.097 L 82.844 212.867 86.219 212.867 L 89.595 212.867 89.662 202.765 C 89.729 192.708,89.731 192.659,90.250 191.687 C 91.095 190.105,93.151 189.426,94.893 190.154 C 96.355 190.765,96.388 191.046,96.388 202.601 L 96.388 212.867 99.881 212.867 L 103.373 212.867 103.436 202.499 C 103.497 192.431,103.512 192.114,103.964 191.509 C 105.086 190.006,106.819 189.478,108.424 190.149 C 109.933 190.779,109.932 190.772,109.932 202.476 L 109.932 212.867 113.444 212.867 L 116.957 212.867 116.886 201.524 C 116.807 188.960,116.795 188.858,115.220 186.792 C 112.731 183.529,105.910 184.150,103.884 187.825 C 103.158 189.142,102.895 189.204,102.514 188.149 C 101.498 185.339,97.195 183.821,93.747 185.056 M129.520 184.987 C 125.558 185.991,123.251 188.790,123.251 192.592 L 123.251 193.679 126.266 193.679 L 129.282 193.679 129.412 192.420 C 129.878 187.908,136.114 188.068,136.117 192.593 C 136.118 195.150,135.787 195.430,131.307 196.659 C 123.261 198.867,120.907 202.316,122.908 208.963 C 124.340 213.718,131.510 215.012,134.962 211.138 C 136.115 209.845,136.183 209.836,136.433 210.948 C 136.516 211.321,136.695 211.905,136.830 212.246 L 137.075 212.867 140.299 212.867 L 143.522 212.867 143.168 211.795 C 142.877 210.913,142.787 208.873,142.665 200.339 C 142.496 188.563,142.531 188.799,140.729 186.984 C 138.747 184.987,133.329 184.021,129.520 184.987 M169.700 184.987 C 165.767 185.984,163.431 188.811,163.431 192.575 L 163.431 193.679 166.447 193.679 L 169.463 193.679 169.593 192.420 C 170.059 187.908,176.294 188.068,176.297 192.593 C 176.299 195.150,175.967 195.430,171.488 196.659 C 163.442 198.867,161.088 202.316,163.089 208.963 C 164.520 213.718,171.690 215.012,175.143 211.138 C 176.295 209.845,176.364 209.836,176.613 210.948 C 176.697 211.321,176.875 211.905,177.010 212.246 L 177.256 212.867 180.479 212.867 L 183.703 212.867 183.349 211.795 C 183.058 210.913,182.968 208.873,182.846 200.339 C 182.677 188.563,182.711 188.799,180.910 186.984 C 178.927 184.987,173.509 184.021,169.700 184.987 M195.147 184.966 C 190.717 186.367,189.278 189.833,189.278 199.097 C 189.278 204.962,189.514 206.615,190.716 209.157 C 192.822 213.610,198.923 214.797,202.255 211.402 C 202.805 210.842,203.335 210.384,203.433 210.384 C 203.531 210.384,203.612 212.923,203.612 216.027 L 203.612 221.670 207.111 221.670 L 210.609 221.670 210.609 203.499 L 210.609 185.327 207.223 185.327 L 203.837 185.327 203.837 186.806 L 203.837 188.286 202.427 186.825 C 200.456 184.785,197.836 184.115,195.147 184.966 M250.362 184.985 C 246.681 185.820,244.590 188.266,244.134 192.269 L 243.974 193.679 247.156 193.679 L 250.339 193.679 250.339 192.641 C 250.339 189.018,255.514 187.759,256.781 191.075 C 257.905 194.020,256.911 195.345,252.709 196.503 C 245.232 198.564,243.607 200.047,243.386 205.010 C 243.158 210.160,245.306 213.037,249.556 213.270 C 252.745 213.445,255.076 212.554,256.205 210.727 C 256.862 209.664,256.943 209.704,257.458 211.343 L 257.901 212.754 261.117 212.817 C 262.887 212.851,264.334 212.831,264.334 212.771 C 264.334 212.712,264.182 212.078,263.995 211.363 C 263.722 210.312,263.656 208.308,263.653 200.912 C 263.648 189.060,263.419 187.892,260.768 186.210 C 258.570 184.816,253.658 184.238,250.362 184.985 M289.985 185.008 C 285.729 186.038,283.478 188.764,283.461 192.908 C 283.444 197.140,285.262 199.021,291.518 201.240 C 296.730 203.089,298.023 204.716,296.397 207.382 C 294.548 210.415,289.392 208.762,289.391 205.135 L 289.391 204.063 286.204 204.063 L 283.017 204.063 283.169 205.587 C 283.722 211.135,286.491 213.310,293.002 213.310 C 299.418 213.310,302.983 210.652,303.329 205.611 C 303.674 200.572,301.798 198.561,294.518 196.166 C 291.298 195.107,290.416 194.522,290.063 193.212 C 289.413 190.798,291.416 188.870,294.125 189.303 C 295.747 189.562,296.614 190.761,296.614 192.746 L 296.614 193.454 299.661 193.454 L 302.709 193.454 302.709 191.989 C 302.709 186.490,296.940 183.325,289.985 185.008 M326.548 185.609 C 326.369 185.889,322.748 192.060,318.502 199.323 C 314.256 206.586,310.737 212.604,310.682 212.698 C 310.628 212.791,312.036 212.866,313.813 212.866 L 317.043 212.865 325.056 199.182 C 329.464 191.657,333.104 185.410,333.145 185.301 C 333.343 184.778,326.886 185.081,326.548 185.609 M216.930 196.151 C 216.930 207.651,216.999 208.564,218.008 210.444 C 219.980 214.116,226.806 214.359,229.815 210.865 C 231.094 209.380,231.151 209.398,231.151 211.287 L 231.151 212.867 234.424 212.867 L 237.698 212.867 237.698 199.097 L 237.698 185.327 234.324 185.327 L 230.951 185.327 230.882 195.429 C 230.796 207.919,230.706 208.214,226.975 208.224 C 223.899 208.232,223.928 208.349,223.928 195.677 L 223.928 185.327 220.429 185.327 L 216.930 185.327 216.930 196.151 M270.655 199.097 L 270.655 212.867 274.153 212.867 L 277.652 212.867 277.652 199.097 L 277.652 185.327 274.153 185.327 L 270.655 185.327 270.655 199.097 M201.558 190.169 C 204.555 191.719,204.576 206.342,201.584 207.934 C 200.015 208.768,197.763 208.309,196.988 206.997 C 195.555 204.570,195.522 193.963,196.940 191.222 C 197.605 189.935,200.034 189.381,201.558 190.169 M136.117 202.520 C 136.117 206.569,135.791 207.472,134.018 208.330 C 131.689 209.458,129.675 208.770,129.145 206.667 C 128.309 203.347,129.435 201.395,132.790 200.349 C 133.813 200.029,134.904 199.621,135.214 199.441 C 135.525 199.260,135.855 199.109,135.948 199.105 C 136.041 199.101,136.117 200.637,136.117 202.520 M176.298 202.520 C 176.298 206.569,175.972 207.472,174.198 208.330 C 171.835 209.474,169.863 208.801,169.326 206.666 C 168.490 203.347,169.616 201.395,172.971 200.349 C 173.994 200.029,175.085 199.621,175.395 199.441 C 175.705 199.260,176.036 199.109,176.129 199.105 C 176.222 199.101,176.298 200.637,176.298 202.520 M257.111 202.265 C 257.111 207.189,256.034 208.804,252.748 208.804 C 250.665 208.804,249.891 207.748,249.888 204.902 C 249.886 202.363,250.830 201.262,253.783 200.362 C 254.806 200.049,255.847 199.640,256.095 199.453 C 257.044 198.735,257.111 198.918,257.111 202.265 " stroke="none" fill="#e44434" fill-rule="evenodd"></path><path id="path1" d="M305.643 68.962 C 306.065 69.396,306.460 69.752,306.522 69.752 C 306.584 69.752,306.290 69.396,305.869 68.962 C 305.448 68.527,305.053 68.172,304.990 68.172 C 304.928 68.172,305.222 68.527,305.643 68.962 M309.029 72.071 C 309.029 72.105,309.817 72.893,310.779 73.821 L 312.528 75.508 310.841 73.758 C 309.274 72.134,309.029 71.906,309.029 72.071 M315.350 78.668 C 315.771 79.103,316.166 79.458,316.229 79.458 C 316.291 79.458,315.997 79.103,315.576 78.668 C 315.154 78.234,314.759 77.878,314.697 77.878 C 314.635 77.878,314.929 78.234,315.350 78.668 M64.773 79.402 L 63.995 80.248 64.842 79.470 C 65.308 79.043,65.688 78.662,65.688 78.624 C 65.688 78.452,65.497 78.614,64.773 79.402 M294.808 81.377 C 295.229 81.812,295.625 82.167,295.687 82.167 C 295.749 82.167,295.455 81.812,295.034 81.377 C 294.613 80.942,294.217 80.587,294.155 80.587 C 294.093 80.587,294.387 80.942,294.808 81.377 M69.173 81.772 L 68.510 82.506 69.244 81.843 C 69.647 81.478,69.977 81.148,69.977 81.109 C 69.977 80.935,69.791 81.088,69.173 81.772 M63.995 86.682 C 62.510 88.172,61.345 89.391,61.407 89.391 C 61.469 89.391,62.735 88.172,64.221 86.682 C 65.707 85.192,66.872 83.973,66.810 83.973 C 66.748 83.973,65.481 85.192,63.995 86.682 M56.647 87.528 L 55.869 88.375 56.716 87.597 C 57.503 86.873,57.666 86.682,57.493 86.682 C 57.456 86.682,57.075 87.063,56.647 87.528 M302.935 89.503 C 303.356 89.938,303.751 90.293,303.813 90.293 C 303.875 90.293,303.581 89.938,303.160 89.503 C 302.739 89.069,302.344 88.713,302.282 88.713 C 302.220 88.713,302.513 89.069,302.935 89.503 M149.769 194.582 C 149.769 204.701,149.797 208.840,149.831 203.781 C 149.864 198.722,149.864 190.443,149.831 185.384 C 149.797 180.324,149.769 184.464,149.769 194.582 M230.803 194.921 C 230.803 200.260,230.833 202.411,230.869 199.703 C 230.905 196.994,230.905 192.626,230.869 189.996 C 230.833 187.366,230.803 189.582,230.803 194.921 M201.580 185.849 C 201.580 185.888,201.910 186.218,202.314 186.583 L 203.047 187.246 202.384 186.512 C 201.766 185.829,201.580 185.675,201.580 185.849 M253.330 189.320 C 253.547 189.377,253.902 189.377,254.120 189.320 C 254.337 189.264,254.159 189.217,253.725 189.217 C 253.290 189.217,253.112 189.264,253.330 189.320 M302.773 192.438 C 302.775 193.059,302.819 193.286,302.871 192.943 C 302.923 192.600,302.921 192.092,302.868 191.814 C 302.814 191.536,302.772 191.817,302.773 192.438 M142.766 200.564 C 142.766 205.282,142.796 207.244,142.833 204.925 C 142.869 202.605,142.869 198.745,142.833 196.347 C 142.796 193.949,142.766 195.847,142.766 200.564 M182.947 200.564 C 182.947 205.282,182.977 207.244,183.013 204.925 C 183.050 202.605,183.050 198.745,183.013 196.347 C 182.977 193.949,182.947 195.847,182.947 200.564 M362.811 193.115 C 362.813 193.612,362.860 193.788,362.914 193.508 C 362.968 193.227,362.966 192.820,362.909 192.605 C 362.853 192.389,362.808 192.619,362.811 193.115 M12.472 194.018 C 12.475 194.515,12.521 194.691,12.575 194.410 C 12.629 194.130,12.627 193.723,12.570 193.508 C 12.514 193.292,12.470 193.521,12.472 194.018 M89.720 203.160 C 89.720 208.561,89.749 210.770,89.785 208.070 C 89.821 205.370,89.821 200.951,89.785 198.251 C 89.749 195.550,89.720 197.760,89.720 203.160 M346.337 194.808 C 346.337 195.367,346.381 195.595,346.435 195.316 C 346.489 195.037,346.489 194.580,346.435 194.300 C 346.381 194.021,346.337 194.249,346.337 194.808 M17.226 195.824 C 17.227 196.569,17.269 196.846,17.319 196.441 C 17.370 196.035,17.369 195.425,17.317 195.086 C 17.266 194.747,17.224 195.079,17.226 195.824 M189.020 199.097 C 189.020 200.277,189.058 200.759,189.105 200.169 C 189.151 199.580,189.151 198.615,189.105 198.025 C 189.058 197.435,189.020 197.918,189.020 199.097 M17.223 203.837 C 17.223 204.520,17.266 204.800,17.317 204.458 C 17.369 204.117,17.369 203.558,17.317 203.217 C 17.266 202.875,17.223 203.155,17.223 203.837 M284.594 204.005 C 285.494 204.048,286.967 204.048,287.867 204.005 C 288.767 203.962,288.030 203.927,286.230 203.927 C 284.430 203.927,283.694 203.962,284.594 204.005 M346.340 204.853 C 346.342 205.474,346.385 205.701,346.437 205.358 C 346.489 205.015,346.488 204.507,346.434 204.229 C 346.381 203.952,346.338 204.233,346.340 204.853 M12.472 205.756 C 12.475 206.253,12.521 206.429,12.575 206.149 C 12.629 205.868,12.627 205.461,12.570 205.246 C 12.514 205.030,12.470 205.260,12.472 205.756 M243.167 205.643 C 243.167 206.078,243.214 206.256,243.271 206.038 C 243.328 205.821,243.328 205.466,243.271 205.248 C 243.214 205.031,243.167 205.209,243.167 205.643 M362.811 206.659 C 362.813 207.156,362.860 207.332,362.914 207.052 C 362.968 206.771,362.966 206.364,362.909 206.149 C 362.853 205.933,362.808 206.163,362.811 206.659 M199.379 208.282 C 199.597 208.339,199.952 208.339,200.169 208.282 C 200.387 208.225,200.209 208.179,199.774 208.179 C 199.340 208.179,199.162 208.225,199.379 208.282 M226.583 208.286 C 226.864 208.340,227.270 208.338,227.486 208.282 C 227.702 208.225,227.472 208.181,226.975 208.183 C 226.479 208.186,226.302 208.232,226.583 208.286 M301.002 210.892 L 300.339 211.625 301.072 210.962 C 301.756 210.344,301.910 210.158,301.735 210.158 C 301.696 210.158,301.366 210.488,301.002 210.892 M191.422 210.680 C 191.422 210.719,191.752 211.049,192.156 211.414 L 192.889 212.077 192.226 211.343 C 191.608 210.659,191.422 210.506,191.422 210.680 M202.130 211.569 L 201.467 212.302 202.201 211.639 C 202.604 211.275,202.935 210.945,202.935 210.906 C 202.935 210.731,202.748 210.885,202.130 211.569 M59.142 307.971 C 59.142 308.010,59.472 308.340,59.876 308.705 L 60.609 309.368 59.946 308.634 C 59.328 307.950,59.142 307.797,59.142 307.971 M302.360 310.892 L 301.467 311.851 302.427 310.959 C 303.319 310.129,303.490 309.932,303.319 309.932 C 303.282 309.932,302.850 310.364,302.360 310.892 M57.788 313.431 C 58.462 314.114,59.065 314.673,59.127 314.673 C 59.189 314.673,58.688 314.114,58.014 313.431 C 57.339 312.748,56.737 312.190,56.675 312.190 C 56.612 312.190,57.113 312.748,57.788 313.431 M67.720 316.549 C 67.720 316.588,68.050 316.918,68.454 317.283 L 69.187 317.946 68.524 317.212 C 67.906 316.528,67.720 316.375,67.720 316.549 M295.362 317.889 L 294.470 318.849 295.429 317.956 C 296.321 317.127,296.492 316.930,296.321 316.930 C 296.284 316.930,295.853 317.362,295.362 317.889 M63.431 319.074 C 64.106 319.757,64.708 320.316,64.770 320.316 C 64.832 320.316,64.331 319.757,63.657 319.074 C 62.983 318.392,62.380 317.833,62.318 317.833 C 62.256 317.833,62.757 318.392,63.431 319.074 M314.886 321.614 L 314.108 322.460 314.955 321.683 C 315.420 321.255,315.801 320.874,315.801 320.836 C 315.801 320.664,315.610 320.826,314.886 321.614 M306.083 330.418 L 305.305 331.264 306.151 330.486 C 306.617 330.058,306.998 329.677,306.998 329.640 C 306.998 329.467,306.807 329.630,306.083 330.418 " stroke="none" fill="#ec5c54" fill-rule="evenodd"></path><path id="path2" d="M153.291 41.237 C 153.279 41.560,153.099 41.763,152.765 41.827 L 152.257 41.925 152.772 41.956 C 153.307 41.988,153.627 41.537,153.425 41.035 C 153.361 40.875,153.301 40.966,153.291 41.237 M132.393 46.275 C 132.108 46.398,132.066 46.469,132.280 46.469 C 132.466 46.469,132.822 46.382,133.070 46.275 C 133.355 46.153,133.396 46.081,133.183 46.081 C 132.997 46.081,132.641 46.169,132.393 46.275 M274.939 46.558 C 274.709 47.032,274.715 47.038,275.029 46.648 C 275.225 46.404,275.480 46.301,275.641 46.401 C 275.817 46.509,275.858 46.477,275.755 46.310 C 275.507 45.909,275.210 45.999,274.939 46.558 M274.153 47.856 C 273.961 48.228,273.854 48.533,273.916 48.533 C 273.978 48.533,274.187 48.228,274.379 47.856 C 274.572 47.483,274.679 47.178,274.617 47.178 C 274.554 47.178,274.346 47.483,274.153 47.856 M109.707 49.323 C 109.396 49.500,109.244 49.645,109.368 49.645 C 109.492 49.645,109.848 49.500,110.158 49.323 C 110.468 49.145,110.621 49.000,110.497 49.000 C 110.372 49.000,110.017 49.145,109.707 49.323 M280.926 49.599 C 281.279 49.958,286.005 53.071,286.005 52.945 C 286.005 52.883,284.963 52.137,283.691 51.287 C 281.157 49.596,280.570 49.237,280.926 49.599 M106.546 50.790 C 105.863 51.151,105.406 51.446,105.530 51.446 C 105.655 51.446,106.315 51.151,106.998 50.790 C 107.681 50.429,108.138 50.134,108.014 50.134 C 107.889 50.134,107.229 50.429,106.546 50.790 M271.219 52.822 C 271.026 53.194,270.920 53.499,270.982 53.499 C 271.044 53.499,271.252 53.194,271.445 52.822 C 271.637 52.449,271.744 52.144,271.682 52.144 C 271.620 52.144,271.412 52.449,271.219 52.822 M100.395 53.852 C 99.805 54.159,99.323 54.461,99.323 54.523 C 99.323 54.585,99.831 54.378,100.451 54.063 C 101.072 53.749,101.580 53.442,101.580 53.382 C 101.580 53.233,101.600 53.225,100.395 53.852 M286.907 53.581 C 286.907 53.643,287.212 53.911,287.585 54.176 C 287.957 54.441,288.262 54.607,288.262 54.545 C 288.262 54.483,287.957 54.216,287.585 53.950 C 287.212 53.685,286.907 53.519,286.907 53.581 M111.287 54.063 C 110.976 54.241,110.824 54.386,110.948 54.386 C 111.072 54.386,111.428 54.241,111.738 54.063 C 112.049 53.886,112.201 53.741,112.077 53.741 C 111.953 53.741,111.597 53.886,111.287 54.063 M288.542 54.759 C 288.616 54.878,289.159 55.323,289.750 55.747 C 290.341 56.171,290.764 56.421,290.690 56.302 C 290.617 56.183,290.073 55.738,289.482 55.314 C 288.892 54.890,288.469 54.640,288.542 54.759 M97.460 55.434 C 96.617 55.892,96.668 56.082,97.517 55.643 C 97.889 55.451,98.194 55.245,98.194 55.186 C 98.194 55.041,98.170 55.049,97.460 55.434 M105.587 56.785 C 103.756 57.711,102.257 58.519,102.257 58.581 C 102.257 58.682,109.007 55.380,109.236 55.166 C 109.602 54.827,108.463 55.332,105.587 56.785 M268.284 57.788 C 268.092 58.160,267.985 58.465,268.047 58.465 C 268.109 58.465,268.318 58.160,268.510 57.788 C 268.703 57.415,268.810 57.111,268.747 57.111 C 268.685 57.111,268.477 57.415,268.284 57.788 M292.777 57.863 C 292.777 57.925,293.183 58.297,293.679 58.691 C 294.176 59.084,294.582 59.355,294.582 59.293 C 294.582 59.231,294.176 58.858,293.679 58.465 C 293.183 58.072,292.777 57.801,292.777 57.863 M100.169 59.609 C 99.704 59.855,99.323 60.106,99.323 60.168 C 99.323 60.230,99.729 60.073,100.226 59.819 C 100.722 59.566,101.129 59.310,101.129 59.250 C 101.129 59.103,101.127 59.103,100.169 59.609 M88.544 60.748 C 87.775 61.241,87.526 61.572,88.205 61.198 C 88.723 60.914,89.535 60.286,89.391 60.282 C 89.328 60.280,88.948 60.490,88.544 60.748 M98.363 60.626 C 97.520 61.084,97.571 61.274,98.420 60.835 C 98.792 60.643,99.097 60.437,99.097 60.378 C 99.097 60.233,99.073 60.241,98.363 60.626 M96.783 61.529 C 95.939 61.986,95.991 62.177,96.840 61.738 C 97.212 61.546,97.517 61.340,97.517 61.281 C 97.517 61.136,97.493 61.144,96.783 61.529 M297.065 61.247 C 297.065 61.304,297.954 62.095,299.041 63.004 C 300.127 63.914,300.885 64.494,300.726 64.294 C 300.376 63.855,297.065 61.099,297.065 61.247 M271.445 63.369 C 271.798 63.728,277.201 67.291,277.201 67.165 C 277.201 67.103,276.007 66.256,274.549 65.282 C 271.679 63.368,271.083 63.000,271.445 63.369 M92.833 63.909 C 92.064 64.401,91.815 64.732,92.494 64.359 C 93.012 64.074,93.824 63.446,93.679 63.442 C 93.617 63.440,93.236 63.650,92.833 63.909 M83.126 64.357 C 82.599 64.730,82.167 65.086,82.167 65.147 C 82.167 65.209,82.624 64.944,83.183 64.560 C 83.742 64.175,84.199 63.815,84.199 63.759 C 84.199 63.604,84.156 63.627,83.126 64.357 M301.806 65.350 C 302.227 65.784,302.622 66.140,302.684 66.140 C 302.747 66.140,302.453 65.784,302.032 65.350 C 301.610 64.915,301.215 64.560,301.153 64.560 C 301.091 64.560,301.385 64.915,301.806 65.350 M90.177 65.607 C 89.025 66.371,88.619 66.774,89.518 66.261 C 90.310 65.809,91.366 65.024,91.192 65.016 C 91.128 65.014,90.671 65.279,90.177 65.607 M81.151 65.821 L 80.474 66.403 81.208 65.918 C 81.611 65.650,81.941 65.388,81.941 65.335 C 81.941 65.166,81.846 65.224,81.151 65.821 M303.828 67.099 C 304.763 68.096,304.966 68.275,304.966 68.106 C 304.966 68.069,304.484 67.587,303.894 67.033 L 302.822 66.027 303.828 67.099 M78.160 67.956 C 77.012 68.826,76.072 69.588,76.072 69.649 C 76.072 69.710,77.037 69.035,78.217 68.148 C 80.082 66.747,80.546 66.351,80.305 66.370 C 80.274 66.373,79.309 67.086,78.160 67.956 M87.498 67.379 C 86.891 67.799,86.282 68.265,86.143 68.414 C 86.005 68.564,86.527 68.262,87.302 67.743 C 88.078 67.225,88.713 66.753,88.713 66.696 C 88.713 66.541,88.692 66.553,87.498 67.379 M277.427 67.351 C 277.427 67.413,277.731 67.681,278.104 67.946 C 278.476 68.211,278.781 68.377,278.781 68.315 C 278.781 68.253,278.476 67.985,278.104 67.720 C 277.731 67.455,277.427 67.289,277.427 67.351 M306.998 70.090 C 308.048 71.146,308.957 72.009,309.019 72.009 C 309.081 72.009,308.273 71.146,307.223 70.090 C 306.174 69.035,305.264 68.172,305.202 68.172 C 305.140 68.172,305.948 69.035,306.998 70.090 M279.007 68.479 C 279.007 68.541,279.312 68.809,279.684 69.074 C 280.056 69.340,280.361 69.506,280.361 69.444 C 280.361 69.382,280.056 69.114,279.684 68.849 C 279.312 68.584,279.007 68.417,279.007 68.479 M84.312 69.659 L 83.634 70.240 84.368 69.755 C 84.771 69.488,85.102 69.226,85.102 69.172 C 85.102 69.003,85.006 69.062,84.312 69.659 M81.321 71.794 C 80.172 72.664,79.233 73.425,79.233 73.486 C 79.233 73.548,80.198 72.872,81.377 71.986 C 83.242 70.584,83.706 70.188,83.465 70.208 C 83.434 70.210,82.469 70.924,81.321 71.794 M282.393 70.955 C 282.393 71.017,282.799 71.390,283.296 71.783 C 283.792 72.177,284.199 72.448,284.199 72.386 C 284.199 72.323,283.792 71.951,283.296 71.558 C 282.799 71.164,282.393 70.893,282.393 70.955 M310.722 73.589 C 311.585 74.458,312.341 75.169,312.403 75.169 C 312.465 75.169,311.810 74.458,310.948 73.589 C 310.086 72.720,309.329 72.009,309.267 72.009 C 309.205 72.009,309.860 72.720,310.722 73.589 M284.424 72.527 C 284.424 72.585,284.902 73.023,285.486 73.502 C 286.070 73.980,286.475 74.254,286.386 74.110 C 286.196 73.803,284.424 72.373,284.424 72.527 M68.473 75.842 C 67.086 77.076,65.878 78.206,65.787 78.353 C 65.696 78.499,66.856 77.520,68.364 76.177 C 70.818 73.992,71.248 73.579,71.050 73.593 C 71.019 73.596,69.859 74.607,68.473 75.842 M77.370 74.849 C 76.532 75.535,75.847 76.146,75.847 76.207 C 75.847 76.268,76.558 75.743,77.427 75.041 C 78.800 73.931,79.180 73.571,78.950 73.595 C 78.919 73.598,78.208 74.162,77.370 74.849 M287.265 74.858 C 287.648 75.215,289.398 76.755,291.154 78.280 C 292.910 79.805,296.152 82.788,298.358 84.910 L 302.370 88.768 298.407 84.847 C 294.597 81.078,290.789 77.610,287.923 75.299 C 287.178 74.699,286.882 74.500,287.265 74.858 M314.221 77.314 C 315.271 78.369,316.181 79.233,316.243 79.233 C 316.305 79.233,315.497 78.369,314.447 77.314 C 313.397 76.258,312.487 75.395,312.425 75.395 C 312.363 75.395,313.171 76.258,314.221 77.314 M71.633 79.679 C 70.246 80.914,69.038 82.044,68.947 82.190 C 68.857 82.337,70.016 81.358,71.524 80.015 C 73.979 77.829,74.408 77.416,74.210 77.431 C 74.179 77.433,73.019 78.445,71.633 79.679 M60.604 83.352 C 57.996 85.990,55.357 88.708,54.739 89.391 C 53.253 91.034,54.013 90.281,60.269 83.916 C 63.168 80.968,65.496 78.555,65.443 78.555 C 65.389 78.555,63.212 80.714,60.604 83.352 M317.146 80.418 C 318.082 81.414,318.284 81.593,318.284 81.424 C 318.284 81.388,317.802 80.905,317.212 80.352 L 316.140 79.345 317.146 80.418 M318.962 82.506 C 319.383 82.940,319.778 83.296,319.840 83.296 C 319.902 83.296,319.609 82.940,319.187 82.506 C 318.766 82.071,318.371 81.716,318.309 81.716 C 318.247 81.716,318.540 82.071,318.962 82.506 M64.103 86.851 C 61.681 89.303,59.195 91.868,58.577 92.551 C 57.137 94.143,57.976 93.313,63.881 87.302 C 66.534 84.602,68.660 82.393,68.605 82.393 C 68.551 82.393,66.525 84.399,64.103 86.851 M321.420 85.384 C 322.329 86.470,323.120 87.359,323.178 87.359 C 323.325 87.359,320.570 84.049,320.130 83.699 C 319.930 83.539,320.511 84.297,321.420 85.384 M324.015 88.555 C 324.494 89.138,324.932 89.616,324.990 89.616 C 325.144 89.616,323.714 87.844,323.407 87.655 C 323.263 87.566,323.537 87.971,324.015 88.555 M303.725 90.496 C 304.470 91.319,305.978 93.032,307.078 94.303 C 308.177 95.574,309.124 96.614,309.182 96.614 C 309.363 96.614,305.926 92.672,304.106 90.793 C 302.837 89.482,302.734 89.402,303.725 90.496 M325.734 90.745 C 326.127 91.242,326.500 91.648,326.562 91.648 C 326.624 91.648,326.353 91.242,325.959 90.745 C 325.566 90.248,325.193 89.842,325.131 89.842 C 325.069 89.842,325.340 90.248,325.734 90.745 M52.810 91.591 L 52.032 92.438 52.878 91.660 C 53.666 90.936,53.828 90.745,53.656 90.745 C 53.618 90.745,53.237 91.126,52.810 91.591 M50.769 93.962 C 50.112 94.738,49.373 95.601,49.127 95.880 C 48.881 96.160,48.737 96.388,48.808 96.388 C 48.878 96.388,49.663 95.525,50.551 94.470 C 51.440 93.414,52.121 92.551,52.065 92.551 C 52.009 92.551,51.426 93.186,50.769 93.962 M56.647 94.752 L 55.869 95.598 56.716 94.820 C 57.503 94.096,57.666 93.905,57.493 93.905 C 57.456 93.905,57.075 94.286,56.647 94.752 M329.120 95.260 C 329.385 95.632,329.653 95.937,329.715 95.937 C 329.777 95.937,329.611 95.632,329.345 95.260 C 329.080 94.887,328.812 94.582,328.750 94.582 C 328.688 94.582,328.854 94.887,329.120 95.260 M54.606 97.122 C 53.949 97.898,53.211 98.761,52.965 99.041 C 52.719 99.320,52.575 99.549,52.645 99.549 C 52.715 99.549,53.500 98.685,54.389 97.630 C 55.277 96.574,55.959 95.711,55.903 95.711 C 55.847 95.711,55.263 96.346,54.606 97.122 M330.248 96.840 C 330.514 97.212,330.781 97.517,330.843 97.517 C 330.905 97.517,330.739 97.212,330.474 96.840 C 330.209 96.467,329.941 96.163,329.879 96.163 C 329.817 96.163,329.983 96.467,330.248 96.840 M311.304 99.379 C 312.442 100.838,313.419 102.032,313.473 102.032 C 313.612 102.032,311.028 98.710,310.044 97.621 C 309.599 97.129,310.166 97.920,311.304 99.379 M46.953 98.646 C 46.559 99.142,46.288 99.549,46.350 99.549 C 46.412 99.549,46.785 99.142,47.178 98.646 C 47.572 98.149,47.843 97.743,47.781 97.743 C 47.719 97.743,47.346 98.149,46.953 98.646 M332.982 100.847 C 334.452 103.057,335.361 104.279,334.868 103.386 C 334.434 102.598,331.583 98.420,331.480 98.420 C 331.418 98.420,332.094 99.512,332.982 100.847 M50.790 101.806 C 50.397 102.302,50.126 102.709,50.188 102.709 C 50.250 102.709,50.622 102.302,51.016 101.806 C 51.409 101.309,51.680 100.903,51.618 100.903 C 51.556 100.903,51.183 101.309,50.790 101.806 M43.567 103.160 C 43.301 103.533,43.135 103.837,43.197 103.837 C 43.259 103.837,43.527 103.533,43.792 103.160 C 44.058 102.788,44.224 102.483,44.162 102.483 C 44.100 102.483,43.832 102.788,43.567 103.160 M42.438 104.740 C 42.173 105.113,42.007 105.418,42.069 105.418 C 42.131 105.418,42.398 105.113,42.664 104.740 C 42.929 104.368,43.095 104.063,43.033 104.063 C 42.971 104.063,42.703 104.368,42.438 104.740 M315.585 105.058 C 316.009 105.649,316.453 106.192,316.573 106.266 C 316.692 106.339,316.442 105.916,316.018 105.326 C 315.594 104.735,315.149 104.192,315.030 104.118 C 314.911 104.044,315.161 104.467,315.585 105.058 M335.637 104.853 C 335.759 105.102,336.024 105.508,336.226 105.756 L 336.594 106.208 336.372 105.756 C 336.250 105.508,335.985 105.102,335.783 104.853 L 335.415 104.402 335.637 104.853 M40.000 108.296 C 38.086 111.165,37.718 111.762,38.087 111.400 C 38.446 111.046,42.009 105.643,41.883 105.643 C 41.820 105.643,40.973 106.837,40.000 108.296 M47.404 106.321 C 47.139 106.693,46.973 106.998,47.035 106.998 C 47.097 106.998,47.365 106.693,47.630 106.321 C 47.895 105.948,48.061 105.643,47.999 105.643 C 47.937 105.643,47.669 105.948,47.404 106.321 M46.275 107.901 C 46.010 108.273,45.844 108.578,45.906 108.578 C 45.968 108.578,46.236 108.273,46.501 107.901 C 46.766 107.528,46.933 107.223,46.870 107.223 C 46.808 107.223,46.541 107.528,46.275 107.901 M317.833 108.239 C 318.217 108.798,318.583 109.255,318.645 109.255 C 318.707 109.255,318.443 108.798,318.059 108.239 C 317.674 107.681,317.309 107.223,317.247 107.223 C 317.185 107.223,317.449 107.681,317.833 108.239 M44.292 110.779 C 43.229 112.360,43.062 112.641,43.182 112.641 C 43.233 112.641,43.747 111.930,44.325 111.061 C 44.903 110.192,45.328 109.481,45.270 109.481 C 45.211 109.481,44.771 110.065,44.292 110.779 M320.287 111.851 C 320.409 112.099,320.674 112.506,320.876 112.754 L 321.244 113.205 321.022 112.754 C 320.900 112.506,320.635 112.099,320.433 111.851 L 320.065 111.400 320.287 111.851 M340.745 113.544 C 340.938 113.916,341.146 114.221,341.208 114.221 C 341.270 114.221,341.163 113.916,340.971 113.544 C 340.778 113.172,340.570 112.867,340.508 112.867 C 340.446 112.867,340.552 113.172,340.745 113.544 M321.867 114.334 C 321.989 114.582,322.254 114.989,322.456 115.237 L 322.824 115.688 322.602 115.237 C 322.480 114.989,322.215 114.582,322.013 114.334 L 321.646 113.883 321.867 114.334 M41.847 114.503 C 41.070 115.822,41.019 115.934,41.415 115.463 C 41.873 114.917,42.269 114.221,42.121 114.221 C 42.061 114.221,41.938 114.348,41.847 114.503 M342.325 116.479 C 342.640 117.099,342.948 117.607,343.010 117.607 C 343.072 117.607,342.865 117.099,342.551 116.479 C 342.236 115.858,341.928 115.350,341.866 115.350 C 341.804 115.350,342.010 115.858,342.325 116.479 M324.492 118.736 C 324.685 119.108,324.893 119.413,324.955 119.413 C 325.017 119.413,324.910 119.108,324.718 118.736 C 324.525 118.363,324.317 118.059,324.255 118.059 C 324.193 118.059,324.299 118.363,324.492 118.736 M38.488 120.090 C 38.295 120.463,38.188 120.767,38.250 120.767 C 38.312 120.767,38.521 120.463,38.713 120.090 C 38.906 119.718,39.013 119.413,38.951 119.413 C 38.889 119.413,38.680 119.718,38.488 120.090 M325.395 120.316 C 325.588 120.688,325.796 120.993,325.858 120.993 C 325.920 120.993,325.813 120.688,325.621 120.316 C 325.428 119.944,325.220 119.639,325.158 119.639 C 325.096 119.639,325.202 119.944,325.395 120.316 M32.280 120.993 C 32.027 121.490,31.870 121.896,31.932 121.896 C 31.994 121.896,32.252 121.490,32.506 120.993 C 32.759 120.497,32.915 120.090,32.853 120.090 C 32.791 120.090,32.533 120.497,32.280 120.993 M37.585 121.670 C 37.392 122.043,37.285 122.348,37.347 122.348 C 37.409 122.348,37.618 122.043,37.810 121.670 C 38.003 121.298,38.110 120.993,38.048 120.993 C 37.986 120.993,37.777 121.298,37.585 121.670 M326.524 122.348 C 326.716 122.720,326.925 123.025,326.987 123.025 C 327.049 123.025,326.942 122.720,326.749 122.348 C 326.557 121.975,326.348 121.670,326.286 121.670 C 326.224 121.670,326.331 121.975,326.524 122.348 M345.619 122.912 C 345.619 123.036,345.863 123.595,346.163 124.153 C 346.462 124.712,346.706 125.068,346.706 124.944 C 346.706 124.819,346.462 124.261,346.163 123.702 C 345.863 123.143,345.619 122.788,345.619 122.912 M36.343 123.928 C 36.090 124.424,35.933 124.831,35.995 124.831 C 36.057 124.831,36.315 124.424,36.569 123.928 C 36.822 123.431,36.979 123.025,36.917 123.025 C 36.855 123.025,36.596 123.431,36.343 123.928 M29.559 126.209 C 28.806 127.712,28.225 128.977,28.268 129.021 C 28.312 129.064,28.978 127.835,29.748 126.288 C 30.519 124.742,31.099 123.476,31.039 123.476 C 30.978 123.476,30.313 124.706,29.559 126.209 M329.281 127.642 C 330.114 129.313,330.830 130.644,330.874 130.601 C 330.973 130.501,328.027 124.605,327.878 124.605 C 327.817 124.605,328.449 125.972,329.281 127.642 M347.194 126.298 C 347.194 126.422,347.339 126.778,347.517 127.088 C 347.694 127.398,347.840 127.551,347.840 127.427 C 347.840 127.302,347.694 126.947,347.517 126.637 C 347.339 126.326,347.194 126.174,347.194 126.298 M33.961 128.466 C 33.517 129.347,33.191 130.106,33.236 130.151 C 33.281 130.196,33.693 129.474,34.151 128.547 C 34.610 127.621,34.936 126.862,34.877 126.862 C 34.817 126.862,34.405 127.584,33.961 128.466 M348.097 128.330 C 348.097 128.454,348.242 128.809,348.420 129.120 C 348.597 129.430,348.742 129.582,348.742 129.458 C 348.742 129.334,348.597 128.979,348.420 128.668 C 348.242 128.358,348.097 128.205,348.097 128.330 M27.016 131.500 C 26.485 132.612,26.560 132.802,27.114 131.751 C 27.366 131.273,27.532 130.843,27.483 130.794 C 27.435 130.745,27.224 131.063,27.016 131.500 M31.756 133.080 C 31.226 134.192,31.300 134.382,31.855 133.331 C 32.107 132.854,32.273 132.423,32.224 132.374 C 32.175 132.326,31.965 132.643,31.756 133.080 M331.619 132.393 C 331.619 132.517,331.764 132.872,331.941 133.183 C 332.119 133.493,332.264 133.646,332.264 133.521 C 332.264 133.397,332.119 133.042,331.941 132.731 C 331.764 132.421,331.619 132.269,331.619 132.393 M25.996 133.757 C 25.618 134.587,25.690 134.764,26.099 134.009 C 26.290 133.657,26.404 133.326,26.352 133.275 C 26.301 133.223,26.140 133.440,25.996 133.757 M332.522 134.424 C 332.522 134.549,332.667 134.904,332.844 135.214 C 333.022 135.525,333.167 135.677,333.167 135.553 C 333.167 135.429,333.022 135.073,332.844 134.763 C 332.667 134.453,332.522 134.300,332.522 134.424 M25.319 135.337 C 24.941 136.167,25.013 136.344,25.422 135.590 C 25.613 135.237,25.727 134.907,25.675 134.855 C 25.623 134.803,25.463 135.020,25.319 135.337 M30.736 135.337 C 30.358 136.167,30.430 136.344,30.839 135.590 C 31.030 135.237,31.144 134.907,31.093 134.855 C 31.041 134.803,30.881 135.020,30.736 135.337 M353.142 141.236 C 353.607 142.749,354.596 145.450,354.611 145.246 C 354.633 144.933,353.322 141.054,353.135 140.879 C 353.056 140.805,353.059 140.966,353.142 141.236 M22.147 143.366 C 22.008 143.765,21.934 144.131,21.982 144.179 C 22.030 144.227,22.183 143.940,22.323 143.542 C 22.462 143.143,22.536 142.777,22.488 142.728 C 22.439 142.680,22.286 142.967,22.147 143.366 M336.473 144.244 C 336.556 144.554,336.718 144.960,336.833 145.147 C 336.978 145.382,336.996 145.313,336.891 144.921 C 336.808 144.611,336.646 144.204,336.531 144.018 C 336.385 143.783,336.368 143.852,336.473 144.244 M20.680 147.545 C 20.480 148.132,20.323 148.722,20.333 148.855 C 20.342 148.988,20.544 148.547,20.783 147.874 C 21.022 147.201,21.178 146.611,21.131 146.563 C 21.083 146.516,20.880 146.957,20.680 147.545 M25.418 149.140 C 24.971 150.482,24.613 151.682,24.622 151.806 C 24.632 151.930,25.037 150.871,25.522 149.452 C 26.008 148.033,26.366 146.833,26.319 146.785 C 26.271 146.737,25.866 147.797,25.418 149.140 M355.336 147.856 C 355.336 148.042,355.424 148.397,355.530 148.646 C 355.653 148.930,355.724 148.972,355.724 148.758 C 355.724 148.572,355.637 148.217,355.530 147.968 C 355.408 147.684,355.336 147.642,355.336 147.856 M270.579 175.771 C 270.497 175.854,270.429 177.276,270.429 178.932 L 270.429 181.941 274.097 181.891 L 277.765 181.841 274.210 181.772 L 270.655 181.704 270.655 178.781 L 270.655 175.858 274.210 175.790 L 277.765 175.721 274.248 175.671 C 272.313 175.643,270.662 175.688,270.579 175.771 M153.103 176.241 L 156.656 176.309 156.716 194.645 L 156.775 212.980 156.830 194.526 L 156.885 176.072 153.217 176.123 L 149.549 176.173 153.103 176.241 M362.129 181.941 C 362.129 182.376,362.176 182.554,362.232 182.336 C 362.289 182.119,362.289 181.764,362.232 181.546 C 362.176 181.329,362.129 181.507,362.129 181.941 M13.145 182.844 C 13.145 183.279,13.191 183.457,13.248 183.239 C 13.305 183.022,13.305 182.666,13.248 182.449 C 13.191 182.232,13.145 182.410,13.145 182.844 M18.111 183.070 C 18.111 183.505,18.158 183.682,18.214 183.465 C 18.271 183.248,18.271 182.892,18.214 182.675 C 18.158 182.458,18.111 182.635,18.111 183.070 M362.359 184.312 C 362.362 184.808,362.408 184.985,362.462 184.704 C 362.516 184.423,362.514 184.017,362.458 183.801 C 362.401 183.585,362.357 183.815,362.359 184.312 M12.924 185.214 C 12.926 185.711,12.972 185.888,13.026 185.607 C 13.080 185.326,13.078 184.920,13.022 184.704 C 12.965 184.488,12.921 184.718,12.924 185.214 M95.650 184.587 C 96.050 184.637,96.761 184.638,97.230 184.589 C 97.698 184.540,97.370 184.499,96.501 184.498 C 95.632 184.497,95.249 184.537,95.650 184.587 M109.424 184.588 C 109.828 184.638,110.488 184.638,110.892 184.588 C 111.295 184.538,110.965 184.497,110.158 184.497 C 109.351 184.497,109.021 184.538,109.424 184.588 M132.117 184.591 C 132.711 184.637,133.625 184.637,134.149 184.589 C 134.673 184.542,134.187 184.504,133.070 184.505 C 131.953 184.505,131.524 184.544,132.117 184.591 M172.298 184.591 C 172.891 184.637,173.806 184.637,174.330 184.589 C 174.854 184.542,174.368 184.504,173.251 184.505 C 172.133 184.505,171.705 184.544,172.298 184.591 M196.783 184.588 C 197.187 184.638,197.847 184.638,198.251 184.588 C 198.654 184.538,198.324 184.497,197.517 184.497 C 196.710 184.497,196.380 184.538,196.783 184.588 M252.878 184.590 C 253.468 184.637,254.433 184.637,255.023 184.590 C 255.612 184.544,255.130 184.506,253.950 184.506 C 252.771 184.506,252.288 184.544,252.878 184.590 M292.494 184.590 C 293.022 184.637,293.885 184.637,294.413 184.590 C 294.941 184.542,294.509 184.503,293.454 184.503 C 292.398 184.503,291.967 184.542,292.494 184.590 M345.651 185.102 C 345.651 185.536,345.697 185.714,345.754 185.497 C 345.811 185.279,345.811 184.924,345.754 184.707 C 345.697 184.489,345.651 184.667,345.651 185.102 M17.890 185.440 C 17.892 185.937,17.939 186.113,17.993 185.833 C 18.047 185.552,18.045 185.145,17.988 184.930 C 17.932 184.714,17.887 184.944,17.890 185.440 M106.264 185.231 C 105.389 185.706,105.488 185.869,106.377 185.417 C 107.228 184.985,107.378 184.872,107.092 184.885 C 106.978 184.890,106.606 185.045,106.264 185.231 M113.431 185.250 C 113.804 185.446,114.464 185.924,114.898 186.313 L 115.688 187.020 115.011 186.267 C 114.373 185.556,113.334 184.865,112.934 184.885 C 112.835 184.890,113.059 185.054,113.431 185.250 M326.406 185.384 C 326.186 185.837,326.194 185.850,326.475 185.503 C 326.743 185.173,327.297 185.104,330.156 185.045 L 333.521 184.976 330.087 184.926 C 326.725 184.877,326.647 184.887,326.406 185.384 M82.673 199.035 L 82.728 212.980 82.788 199.153 L 82.848 185.327 86.108 185.327 L 89.369 185.327 89.452 186.625 L 89.536 187.923 89.519 186.569 L 89.503 185.214 86.061 185.152 L 82.619 185.090 82.673 199.035 M205.474 185.269 C 206.436 185.312,208.011 185.312,208.973 185.269 C 209.935 185.227,209.148 185.192,207.223 185.192 C 205.299 185.192,204.512 185.227,205.474 185.269 M216.808 185.384 C 216.748 185.539,216.727 190.491,216.761 196.388 L 216.822 207.111 216.876 196.225 L 216.930 185.339 220.485 185.270 L 224.041 185.202 220.478 185.152 C 217.798 185.114,216.889 185.171,216.808 185.384 M234.140 185.270 L 237.694 185.339 237.754 199.159 L 237.814 212.980 237.869 199.041 L 237.923 185.102 234.255 185.152 L 230.587 185.202 234.140 185.270 M270.533 185.384 C 270.473 185.539,270.452 191.812,270.485 199.323 L 270.545 212.980 270.600 199.159 L 270.655 185.339 274.210 185.270 L 277.765 185.202 274.203 185.152 C 271.523 185.114,270.614 185.171,270.533 185.384 M139.652 186.000 C 140.852 186.687,141.529 187.451,142.095 188.754 C 142.274 189.166,142.424 189.346,142.429 189.153 C 142.455 188.116,139.747 185.320,138.726 185.329 C 138.595 185.331,139.012 185.632,139.652 186.000 M179.833 186.000 C 181.032 186.687,181.709 187.451,182.276 188.754 C 182.454 189.166,182.605 189.346,182.610 189.153 C 182.636 188.116,179.927 185.320,178.906 185.329 C 178.775 185.331,179.192 185.632,179.833 186.000 M90.788 186.602 L 89.729 187.651 90.858 186.677 C 91.479 186.140,92.029 185.668,92.081 185.627 C 92.132 185.587,92.101 185.553,92.011 185.553 C 91.921 185.553,91.371 186.025,90.788 186.602 M101.354 186.343 C 101.776 186.778,102.171 187.133,102.233 187.133 C 102.295 187.133,102.001 186.778,101.580 186.343 C 101.159 185.909,100.764 185.553,100.702 185.553 C 100.639 185.553,100.933 185.909,101.354 186.343 M192.317 186.247 L 191.535 186.940 192.381 186.333 C 193.130 185.796,193.373 185.553,193.163 185.553 C 193.127 185.553,192.746 185.865,192.317 186.247 M104.503 186.625 L 103.725 187.472 104.571 186.694 C 105.359 185.970,105.521 185.779,105.349 185.779 C 105.311 185.779,104.930 186.160,104.503 186.625 M125.703 186.463 C 125.376 186.707,124.938 187.187,124.731 187.528 L 124.352 188.149 124.837 187.585 C 125.103 187.274,125.592 186.795,125.923 186.521 C 126.668 185.901,126.511 185.860,125.703 186.463 M165.472 186.898 C 164.659 187.711,163.641 189.335,163.667 189.777 C 163.673 189.875,163.931 189.468,164.241 188.874 C 164.550 188.279,165.218 187.390,165.724 186.899 C 166.231 186.407,166.583 186.005,166.506 186.005 C 166.429 186.005,165.964 186.407,165.472 186.898 M261.777 186.931 C 262.286 187.503,262.774 188.196,262.862 188.472 C 262.949 188.747,263.070 188.924,263.130 188.864 C 263.337 188.657,262.563 187.469,261.709 186.682 L 260.851 185.892 261.777 186.931 M285.646 186.950 C 285.082 187.470,284.515 188.104,284.386 188.361 C 284.257 188.617,284.471 188.450,284.861 187.990 C 285.251 187.529,285.896 186.896,286.295 186.581 C 286.694 186.267,286.942 186.008,286.846 186.007 C 286.750 186.006,286.210 186.430,285.646 186.950 M300.893 187.020 C 301.437 187.641,301.930 188.200,301.988 188.262 C 302.046 188.324,301.986 188.172,301.855 187.923 C 301.724 187.675,301.231 187.116,300.760 186.682 C 299.945 185.931,299.952 185.948,300.893 187.020 M325.621 186.682 C 325.428 187.054,325.321 187.359,325.383 187.359 C 325.446 187.359,325.654 187.054,325.847 186.682 C 326.039 186.309,326.146 186.005,326.084 186.005 C 326.022 186.005,325.813 186.309,325.621 186.682 M245.976 187.120 C 245.206 187.971,244.466 189.167,244.472 189.549 C 244.474 189.648,244.735 189.272,245.052 188.713 C 245.369 188.155,245.947 187.367,246.335 186.964 C 246.723 186.560,246.982 186.230,246.910 186.230 C 246.838 186.230,246.418 186.631,245.976 187.120 M362.590 187.133 C 362.590 187.692,362.634 187.920,362.688 187.641 C 362.741 187.362,362.741 186.905,362.688 186.625 C 362.634 186.346,362.590 186.574,362.590 187.133 M345.885 187.810 C 345.885 188.369,345.929 188.598,345.983 188.318 C 346.037 188.039,346.037 187.582,345.983 187.302 C 345.929 187.023,345.885 187.252,345.885 187.810 M12.703 188.036 C 12.703 188.595,12.747 188.823,12.800 188.544 C 12.854 188.265,12.854 187.808,12.800 187.528 C 12.747 187.249,12.703 187.477,12.703 188.036 M115.958 187.920 C 116.165 188.353,116.374 188.668,116.423 188.619 C 116.526 188.515,115.841 187.133,115.686 187.133 C 115.629 187.133,115.752 187.487,115.958 187.920 M17.669 188.262 C 17.669 188.821,17.713 189.049,17.767 188.770 C 17.820 188.490,17.820 188.033,17.767 187.754 C 17.713 187.475,17.669 187.703,17.669 188.262 M103.342 188.155 C 103.153 188.569,103.032 188.647,102.899 188.438 C 102.768 188.231,102.715 188.226,102.712 188.418 C 102.705 189.003,103.160 188.917,103.495 188.269 C 103.690 187.893,103.793 187.585,103.726 187.585 C 103.658 187.585,103.485 187.841,103.342 188.155 M123.807 188.954 C 123.610 189.335,123.480 189.737,123.519 189.847 C 123.558 189.957,123.759 189.645,123.967 189.154 C 124.416 188.096,124.316 187.971,123.807 188.954 M330.587 189.842 C 330.394 190.214,330.288 190.519,330.350 190.519 C 330.412 190.519,330.620 190.214,330.813 189.842 C 331.005 189.470,331.112 189.165,331.050 189.165 C 330.988 189.165,330.780 189.470,330.587 189.842 M131.025 189.742 C 130.594 190.087,130.594 190.089,131.038 189.885 C 131.287 189.771,131.642 189.621,131.828 189.552 C 132.121 189.443,132.119 189.424,131.815 189.408 C 131.622 189.399,131.266 189.548,131.025 189.742 M171.206 189.742 C 170.775 190.087,170.775 190.089,171.219 189.885 C 171.467 189.771,171.823 189.621,172.009 189.552 C 172.302 189.443,172.300 189.424,171.996 189.408 C 171.802 189.399,171.447 189.548,171.206 189.742 M255.729 189.984 C 256.018 190.186,256.392 190.668,256.561 191.056 C 256.729 191.444,256.871 191.591,256.876 191.383 C 256.886 190.936,255.829 189.616,255.460 189.616 C 255.319 189.616,255.440 189.782,255.729 189.984 M290.891 190.170 C 290.562 190.474,290.297 190.804,290.301 190.903 C 290.305 191.002,290.432 190.926,290.583 190.735 C 290.734 190.543,291.109 190.212,291.416 190.001 C 291.723 189.789,291.865 189.616,291.731 189.616 C 291.597 189.616,291.219 189.865,290.891 190.170 M295.528 190.170 C 295.738 190.424,296.011 190.886,296.135 191.197 C 296.290 191.585,296.364 191.639,296.374 191.369 C 296.382 191.154,296.109 190.692,295.767 190.343 C 295.426 189.993,295.318 189.915,295.528 190.170 M251.032 190.437 C 250.775 190.764,250.567 191.145,250.571 191.283 C 250.575 191.422,250.691 191.332,250.829 191.084 C 250.966 190.835,251.233 190.454,251.421 190.237 C 251.609 190.020,251.704 189.842,251.632 189.842 C 251.559 189.842,251.290 190.110,251.032 190.437 M362.824 191.084 C 362.825 191.828,362.867 192.106,362.918 191.700 C 362.968 191.295,362.967 190.685,362.915 190.346 C 362.864 190.007,362.823 190.339,362.824 191.084 M108.126 190.227 C 108.313 190.295,108.719 190.567,109.029 190.830 L 109.594 191.309 109.046 190.688 C 108.745 190.347,108.339 190.076,108.143 190.086 C 107.839 190.101,107.836 190.121,108.126 190.227 M90.768 191.091 C 90.383 191.530,90.068 192.013,90.069 192.164 C 90.069 192.314,90.263 192.120,90.501 191.731 C 90.738 191.342,91.166 190.859,91.453 190.658 C 91.740 190.458,91.860 190.293,91.721 190.293 C 91.583 190.293,91.154 190.653,90.768 191.091 M346.120 191.535 C 346.121 192.280,346.163 192.557,346.213 192.152 C 346.263 191.746,346.262 191.137,346.211 190.797 C 346.159 190.458,346.118 190.790,346.120 191.535 M12.488 191.874 C 12.488 192.681,12.529 193.011,12.579 192.607 C 12.629 192.204,12.629 191.543,12.579 191.140 C 12.529 190.736,12.488 191.067,12.488 191.874 M104.471 190.914 C 104.073 191.377,103.775 191.874,103.895 191.874 C 103.941 191.874,104.204 191.569,104.479 191.196 C 105.023 190.460,105.018 190.277,104.471 190.914 M129.790 190.983 C 129.654 191.238,129.575 191.547,129.616 191.670 C 129.657 191.793,129.807 191.584,129.950 191.206 C 130.246 190.420,130.158 190.296,129.790 190.983 M169.971 190.983 C 169.834 191.238,169.756 191.547,169.797 191.670 C 169.838 191.793,169.988 191.584,170.130 191.206 C 170.427 190.420,170.338 190.296,169.971 190.983 M17.451 191.986 C 17.453 192.731,17.495 193.009,17.545 192.603 C 17.595 192.197,17.594 191.588,17.543 191.249 C 17.491 190.910,17.450 191.242,17.451 191.986 M142.716 191.422 C 142.716 191.857,142.762 192.034,142.819 191.817 C 142.876 191.600,142.876 191.244,142.819 191.027 C 142.762 190.810,142.716 190.988,142.716 191.422 M182.897 191.422 C 182.897 191.857,182.943 192.034,183.000 191.817 C 183.057 191.600,183.057 191.244,183.000 191.027 C 182.943 190.810,182.897 190.988,182.897 191.422 M123.092 192.551 C 123.092 193.234,123.135 193.513,123.187 193.172 C 123.238 192.830,123.238 192.271,123.187 191.930 C 123.135 191.589,123.092 191.868,123.092 192.551 M163.273 192.551 C 163.273 193.234,163.315 193.513,163.367 193.172 C 163.419 192.830,163.419 192.271,163.367 191.930 C 163.315 191.589,163.273 191.868,163.273 192.551 M263.760 200.677 C 263.760 205.705,263.790 207.762,263.826 205.248 C 263.862 202.734,263.862 198.620,263.826 196.106 C 263.790 193.592,263.760 195.649,263.760 200.677 M109.759 192.777 C 109.759 193.211,109.805 193.389,109.862 193.172 C 109.919 192.954,109.919 192.599,109.862 192.381 C 109.805 192.164,109.759 192.342,109.759 192.777 M117.034 202.483 C 117.034 208.256,117.063 210.618,117.099 207.731 C 117.135 204.845,117.135 200.121,117.099 197.235 C 117.063 194.348,117.034 196.710,117.034 202.483 M256.937 192.777 C 256.937 193.211,256.984 193.389,257.040 193.172 C 257.097 192.954,257.097 192.599,257.040 192.381 C 256.984 192.164,256.937 192.342,256.937 192.777 M296.441 192.777 C 296.441 193.211,296.487 193.389,296.544 193.172 C 296.601 192.954,296.601 192.599,296.544 192.381 C 296.487 192.164,296.441 192.342,296.441 192.777 M129.398 193.002 C 129.398 193.437,129.444 193.615,129.501 193.397 C 129.558 193.180,129.558 192.824,129.501 192.607 C 129.444 192.390,129.398 192.568,129.398 193.002 M169.578 193.002 C 169.578 193.437,169.625 193.615,169.682 193.397 C 169.738 193.180,169.738 192.824,169.682 192.607 C 169.625 192.390,169.578 192.568,169.578 193.002 M96.266 202.709 C 96.266 208.358,96.296 210.669,96.332 207.844 C 96.367 205.020,96.367 200.398,96.332 197.573 C 96.296 194.749,96.266 197.060,96.266 202.709 M321.783 193.228 C 321.591 193.600,321.484 193.905,321.546 193.905 C 321.608 193.905,321.816 193.600,322.009 193.228 C 322.202 192.856,322.308 192.551,322.246 192.551 C 322.184 192.551,321.976 192.856,321.783 193.228 M290.512 194.069 C 290.646 194.346,290.981 194.682,291.258 194.815 C 291.725 195.042,291.732 195.035,291.347 194.726 C 291.120 194.543,290.784 194.207,290.601 193.980 C 290.292 193.596,290.286 193.602,290.512 194.069 M256.541 194.372 C 256.460 194.629,256.072 195.035,255.680 195.274 C 255.287 195.514,255.101 195.710,255.266 195.710 C 255.624 195.711,256.885 194.495,256.885 194.148 C 256.885 193.751,256.700 193.871,256.541 194.372 M135.234 194.894 L 134.689 195.598 135.335 194.984 C 135.690 194.647,135.935 194.330,135.880 194.280 C 135.824 194.231,135.534 194.507,135.234 194.894 M175.414 194.894 L 174.870 195.598 175.515 194.984 C 175.871 194.647,176.116 194.330,176.060 194.280 C 176.005 194.231,175.714 194.507,175.414 194.894 M189.004 196.050 C 189.005 196.670,189.049 196.898,189.101 196.554 C 189.153 196.211,189.152 195.703,189.098 195.426 C 189.044 195.148,189.002 195.429,189.004 196.050 M363.075 199.887 C 363.074 202.370,363.107 203.417,363.148 202.213 C 363.188 201.009,363.188 198.977,363.148 197.698 C 363.108 196.419,363.075 197.404,363.075 199.887 M326.749 196.388 C 326.557 196.761,326.450 197.065,326.512 197.065 C 326.574 197.065,326.783 196.761,326.975 196.388 C 327.168 196.016,327.275 195.711,327.212 195.711 C 327.150 195.711,326.942 196.016,326.749 196.388 M346.369 199.774 C 346.369 202.071,346.403 203.011,346.444 201.862 C 346.485 200.714,346.485 198.835,346.444 197.686 C 346.403 196.538,346.369 197.477,346.369 199.774 M203.443 197.178 C 203.445 197.675,203.492 197.852,203.546 197.571 C 203.600 197.290,203.598 196.884,203.541 196.668 C 203.485 196.452,203.440 196.682,203.443 197.178 M196.020 199.097 C 196.020 200.401,196.058 200.934,196.103 200.282 C 196.149 199.630,196.149 198.564,196.103 197.912 C 196.058 197.260,196.020 197.793,196.020 199.097 M12.277 199.887 C 12.278 201.501,12.314 202.132,12.357 201.289 C 12.401 200.445,12.400 199.125,12.357 198.354 C 12.313 197.583,12.277 198.273,12.277 199.887 M17.243 199.887 C 17.244 201.501,17.280 202.132,17.323 201.289 C 17.367 200.445,17.367 199.125,17.323 198.354 C 17.279 197.583,17.243 198.273,17.243 199.887 M285.214 198.163 C 285.711 198.696,286.321 199.240,286.569 199.371 C 286.817 199.502,286.970 199.564,286.907 199.507 C 284.708 197.512,284.323 197.205,285.214 198.163 M247.630 197.856 C 247.319 198.033,247.167 198.178,247.291 198.178 C 247.415 198.178,247.771 198.033,248.081 197.856 C 248.392 197.678,248.544 197.533,248.420 197.533 C 248.296 197.533,247.940 197.678,247.630 197.856 M299.887 198.117 C 300.011 198.235,300.495 198.612,300.963 198.954 C 301.430 199.297,302.115 200.104,302.484 200.748 C 302.854 201.392,303.157 201.812,303.158 201.681 C 303.162 201.208,301.836 199.369,301.096 198.821 C 300.249 198.195,299.526 197.773,299.887 198.117 M245.980 198.773 C 245.136 199.347,243.792 200.980,243.792 201.432 C 243.792 201.562,244.092 201.197,244.457 200.620 C 244.823 200.043,245.534 199.298,246.038 198.965 C 246.837 198.437,247.105 198.194,246.892 198.194 C 246.859 198.194,246.449 198.454,245.980 198.773 M124.256 199.605 L 123.363 200.564 124.323 199.672 C 125.215 198.842,125.386 198.646,125.215 198.646 C 125.178 198.646,124.747 199.077,124.256 199.605 M164.436 199.605 L 163.544 200.564 164.503 199.672 C 165.396 198.842,165.566 198.646,165.396 198.646 C 165.359 198.646,164.927 199.077,164.436 199.605 M256.832 201.185 C 256.941 204.976,257.029 205.349,257.070 202.201 C 257.092 200.494,257.034 199.097,256.941 199.097 C 256.848 199.096,256.799 200.036,256.832 201.185 M317.946 199.774 C 317.753 200.147,317.646 200.451,317.708 200.451 C 317.771 200.451,317.979 200.147,318.172 199.774 C 318.364 199.402,318.471 199.097,318.409 199.097 C 318.347 199.097,318.138 199.402,317.946 199.774 M203.443 201.016 C 203.445 201.512,203.492 201.689,203.546 201.408 C 203.600 201.127,203.598 200.721,203.541 200.505 C 203.485 200.289,203.440 200.519,203.443 201.016 M290.519 201.091 C 290.705 201.206,291.112 201.368,291.422 201.451 C 291.814 201.556,291.883 201.538,291.648 201.392 C 291.462 201.277,291.055 201.115,290.745 201.032 C 290.353 200.927,290.284 200.945,290.519 201.091 M189.004 202.144 C 189.005 202.765,189.049 202.992,189.101 202.649 C 189.153 202.306,189.152 201.798,189.098 201.521 C 189.044 201.243,189.002 201.524,189.004 202.144 M316.366 202.483 C 316.173 202.856,316.066 203.160,316.128 203.160 C 316.190 203.160,316.399 202.856,316.591 202.483 C 316.784 202.111,316.891 201.806,316.829 201.806 C 316.767 201.806,316.558 202.111,316.366 202.483 M295.034 202.771 C 295.034 202.814,295.364 203.091,295.767 203.387 C 296.221 203.719,296.379 203.774,296.181 203.530 C 295.880 203.160,295.034 202.600,295.034 202.771 M303.462 204.966 C 303.462 205.897,303.502 206.278,303.550 205.813 C 303.599 205.347,303.599 204.585,303.550 204.120 C 303.502 203.654,303.462 204.035,303.462 204.966 M243.167 204.289 C 243.167 204.723,243.214 204.901,243.271 204.684 C 243.328 204.467,243.328 204.111,243.271 203.894 C 243.214 203.677,243.167 203.854,243.167 204.289 M128.946 204.966 C 128.946 205.401,128.993 205.578,129.050 205.361 C 129.106 205.144,129.106 204.788,129.050 204.571 C 128.993 204.354,128.946 204.532,128.946 204.966 M169.127 204.966 C 169.127 205.401,169.173 205.578,169.230 205.361 C 169.287 205.144,169.287 204.788,169.230 204.571 C 169.173 204.354,169.127 204.532,169.127 204.966 M122.186 205.530 C 122.188 206.151,122.232 206.378,122.284 206.035 C 122.336 205.692,122.334 205.184,122.281 204.907 C 122.227 204.629,122.185 204.910,122.186 205.530 M162.367 205.530 C 162.369 206.151,162.413 206.378,162.464 206.035 C 162.516 205.692,162.515 205.184,162.461 204.907 C 162.408 204.629,162.365 204.910,162.367 205.530 M296.679 205.530 C 296.680 206.151,296.724 206.378,296.776 206.035 C 296.828 205.692,296.826 205.184,296.773 204.907 C 296.719 204.629,296.677 204.910,296.679 205.530 M321.332 205.643 C 321.139 206.016,321.032 206.321,321.095 206.321 C 321.157 206.321,321.365 206.016,321.558 205.643 C 321.750 205.271,321.857 204.966,321.795 204.966 C 321.733 204.966,321.524 205.271,321.332 205.643 M17.451 207.562 C 17.453 208.307,17.495 208.585,17.545 208.179 C 17.595 207.773,17.594 207.164,17.543 206.824 C 17.491 206.485,17.450 206.817,17.451 207.562 M12.485 207.788 C 12.487 208.533,12.529 208.810,12.579 208.405 C 12.629 207.999,12.628 207.389,12.577 207.050 C 12.525 206.711,12.484 207.043,12.485 207.788 M225.002 207.619 C 225.294 207.898,225.705 208.120,225.916 208.112 C 226.170 208.103,226.110 208.023,225.738 207.874 C 225.430 207.752,225.019 207.530,224.824 207.381 C 224.629 207.232,224.709 207.339,225.002 207.619 M346.120 208.239 C 346.121 208.984,346.163 209.262,346.213 208.856 C 346.263 208.450,346.262 207.841,346.211 207.502 C 346.159 207.162,346.118 207.494,346.120 208.239 M362.824 208.691 C 362.825 209.436,362.867 209.713,362.918 209.307 C 362.968 208.902,362.967 208.292,362.915 207.953 C 362.864 207.614,362.823 207.946,362.824 208.691 M294.131 208.578 C 293.666 208.727,293.646 208.762,294.018 208.778 C 294.266 208.788,294.622 208.698,294.808 208.578 C 295.204 208.322,294.929 208.322,294.131 208.578 M312.528 209.029 C 312.336 209.402,312.229 209.707,312.291 209.707 C 312.353 209.707,312.561 209.402,312.754 209.029 C 312.947 208.657,313.053 208.352,312.991 208.352 C 312.929 208.352,312.721 208.657,312.528 209.029 M302.141 209.650 C 301.925 209.992,301.481 210.576,301.156 210.948 L 300.564 211.625 301.243 211.015 C 301.868 210.452,302.866 209.029,302.635 209.029 C 302.580 209.029,302.358 209.309,302.141 209.650 M122.799 209.342 C 122.799 209.584,123.471 210.835,123.601 210.835 C 123.663 210.835,123.546 210.505,123.341 210.102 C 122.922 209.278,122.799 209.106,122.799 209.342 M162.990 209.321 C 162.948 210.031,165.230 212.867,165.843 212.867 C 165.927 212.867,165.567 212.500,165.044 212.052 C 164.520 211.604,163.846 210.766,163.546 210.190 C 163.246 209.614,162.996 209.222,162.990 209.321 M243.795 209.606 C 243.791 209.946,245.044 211.876,245.407 212.089 C 245.580 212.190,245.548 212.080,245.334 211.833 C 245.126 211.595,244.696 210.942,244.377 210.384 C 244.058 209.825,243.797 209.475,243.795 209.606 M230.878 210.892 C 230.987 212.879,231.088 213.067,231.121 211.343 C 231.137 210.443,231.075 209.706,230.982 209.706 C 230.889 209.706,230.842 210.240,230.878 210.892 M229.787 211.117 C 229.368 211.645,229.203 211.933,229.421 211.758 C 229.832 211.428,230.800 210.158,230.640 210.158 C 230.590 210.158,230.207 210.590,229.787 211.117 M203.026 210.644 C 202.926 210.806,202.964 210.844,203.125 210.744 C 203.320 210.624,203.386 212.021,203.386 216.239 L 203.386 221.896 207.054 221.846 L 210.722 221.796 207.167 221.727 L 203.612 221.659 203.612 216.021 C 203.612 210.776,203.512 209.858,203.026 210.644 M17.669 211.512 C 17.669 212.071,17.713 212.300,17.767 212.020 C 17.820 211.741,17.820 211.284,17.767 211.005 C 17.713 210.725,17.669 210.954,17.669 211.512 M12.703 211.738 C 12.703 212.297,12.747 212.525,12.800 212.246 C 12.854 211.967,12.854 211.510,12.800 211.230 C 12.747 210.951,12.703 211.179,12.703 211.738 M191.764 211.264 C 192.255 211.858,194.078 213.094,194.457 213.090 C 194.588 213.088,194.238 212.827,193.679 212.509 C 193.121 212.192,192.361 211.660,191.990 211.327 C 191.402 210.799,191.373 210.791,191.764 211.264 M255.629 211.541 C 255.264 211.929,254.560 212.435,254.063 212.665 C 253.567 212.895,253.292 213.085,253.454 213.088 C 253.964 213.096,254.939 212.482,255.744 211.645 C 256.172 211.199,256.470 210.835,256.407 210.835 C 256.344 210.835,255.994 211.153,255.629 211.541 M124.267 211.701 C 124.639 212.115,125.147 212.559,125.395 212.688 C 125.643 212.817,125.745 212.833,125.621 212.725 C 125.497 212.616,124.989 212.172,124.493 211.738 L 123.590 210.948 124.267 211.701 M218.511 211.590 C 218.821 211.942,219.278 212.336,219.526 212.464 C 220.001 212.709,219.987 212.694,218.737 211.624 L 217.947 210.948 218.511 211.590 M345.881 211.851 C 345.883 212.348,345.930 212.524,345.984 212.243 C 346.038 211.963,346.036 211.556,345.979 211.340 C 345.923 211.125,345.878 211.354,345.881 211.851 M317.489 212.201 L 317.133 212.889 313.758 212.822 C 311.902 212.784,310.383 212.833,310.383 212.929 C 310.384 213.025,311.927 213.076,313.814 213.042 L 317.244 212.980 317.672 212.246 C 317.908 211.843,318.043 211.512,317.972 211.512 C 317.902 211.512,317.684 211.822,317.489 212.201 M362.590 212.641 C 362.590 213.200,362.634 213.428,362.688 213.149 C 362.741 212.870,362.741 212.413,362.688 212.133 C 362.634 211.854,362.590 212.082,362.590 212.641 M128.392 213.484 C 128.923 213.532,129.736 213.531,130.198 213.482 C 130.660 213.434,130.226 213.395,129.233 213.396 C 128.239 213.396,127.861 213.436,128.392 213.484 M168.573 213.484 C 169.103 213.532,169.916 213.531,170.378 213.482 C 170.841 213.434,170.406 213.395,169.413 213.396 C 168.420 213.396,168.042 213.436,168.573 213.484 M196.553 213.481 C 196.953 213.531,197.664 213.532,198.133 213.483 C 198.601 213.434,198.273 213.393,197.404 213.392 C 196.535 213.391,196.152 213.431,196.553 213.481 M223.081 213.483 C 223.547 213.531,224.309 213.531,224.774 213.483 C 225.240 213.434,224.859 213.394,223.928 213.394 C 222.997 213.394,222.616 213.434,223.081 213.483 M249.159 213.484 C 249.690 213.532,250.503 213.531,250.965 213.482 C 251.428 213.434,250.993 213.395,250.000 213.396 C 249.007 213.396,248.629 213.436,249.159 213.484 M292.050 213.485 C 292.706 213.531,293.722 213.530,294.308 213.484 C 294.893 213.438,294.357 213.400,293.115 213.401 C 291.874 213.401,291.394 213.439,292.050 213.485 M17.885 214.221 C 17.885 214.656,17.932 214.834,17.989 214.616 C 18.045 214.399,18.045 214.043,17.989 213.826 C 17.932 213.609,17.885 213.787,17.885 214.221 M12.924 214.560 C 12.926 215.056,12.972 215.233,13.026 214.952 C 13.080 214.671,13.078 214.265,13.022 214.049 C 12.965 213.833,12.921 214.063,12.924 214.560 M345.651 214.673 C 345.651 215.107,345.697 215.285,345.754 215.068 C 345.811 214.850,345.811 214.495,345.754 214.278 C 345.697 214.060,345.651 214.238,345.651 214.673 M362.359 215.463 C 362.362 215.959,362.408 216.136,362.462 215.855 C 362.516 215.574,362.514 215.168,362.458 214.952 C 362.401 214.736,362.357 214.966,362.359 215.463 M13.145 216.930 C 13.145 217.365,13.191 217.542,13.248 217.325 C 13.305 217.108,13.305 216.752,13.248 216.535 C 13.191 216.318,13.145 216.495,13.145 216.930 M345.425 216.930 C 345.425 217.365,345.471 217.542,345.528 217.325 C 345.585 217.108,345.585 216.752,345.528 216.535 C 345.471 216.318,345.425 216.495,345.425 216.930 M362.129 217.833 C 362.129 218.267,362.176 218.445,362.232 218.228 C 362.289 218.011,362.289 217.655,362.232 217.438 C 362.176 217.221,362.129 217.398,362.129 217.833 M13.371 218.962 C 13.371 219.396,13.417 219.574,13.474 219.357 C 13.531 219.139,13.531 218.784,13.474 218.567 C 13.417 218.349,13.371 218.527,13.371 218.962 M339.858 245.050 C 339.775 245.381,339.751 245.695,339.804 245.748 C 339.857 245.801,339.969 245.574,340.052 245.243 C 340.135 244.913,340.159 244.598,340.106 244.545 C 340.053 244.492,339.941 244.719,339.858 245.050 M23.959 245.824 C 23.959 246.010,24.047 246.366,24.153 246.614 C 24.276 246.899,24.348 246.940,24.348 246.727 C 24.348 246.541,24.260 246.185,24.153 245.937 C 24.031 245.652,23.959 245.611,23.959 245.824 M339.181 247.307 C 339.098 247.638,339.073 247.952,339.127 248.006 C 339.180 248.059,339.291 247.832,339.374 247.501 C 339.457 247.170,339.482 246.856,339.429 246.803 C 339.375 246.749,339.264 246.977,339.181 247.307 M19.445 248.081 C 19.445 248.267,19.532 248.623,19.639 248.871 C 19.761 249.156,19.833 249.198,19.833 248.984 C 19.833 248.798,19.746 248.442,19.639 248.194 C 19.517 247.910,19.445 247.868,19.445 248.081 M25.298 264.221 C 25.298 264.345,25.443 264.701,25.621 265.011 C 25.798 265.322,25.943 265.474,25.943 265.350 C 25.943 265.226,25.798 264.870,25.621 264.560 C 25.443 264.249,25.298 264.097,25.298 264.221 M30.716 264.221 C 30.716 264.345,30.861 264.701,31.038 265.011 C 31.216 265.322,31.361 265.474,31.361 265.350 C 31.361 265.226,31.216 264.870,31.038 264.560 C 30.861 264.249,30.716 264.097,30.716 264.221 M31.847 266.704 C 31.847 266.828,32.042 267.286,32.280 267.720 C 32.518 268.155,32.712 268.409,32.712 268.284 C 32.712 268.160,32.518 267.703,32.280 267.269 C 32.042 266.834,31.847 266.580,31.847 266.704 M331.639 267.165 C 331.261 267.996,331.333 268.173,331.742 267.418 C 331.933 267.066,332.047 266.735,331.996 266.683 C 331.944 266.632,331.784 266.849,331.639 267.165 M27.107 268.284 C 27.107 268.409,27.302 268.866,27.540 269.300 C 27.777 269.735,27.972 269.989,27.972 269.865 C 27.972 269.740,27.777 269.283,27.540 268.849 C 27.302 268.414,27.107 268.160,27.107 268.284 M329.281 272.131 C 328.697 273.305,328.269 274.266,328.329 274.266 C 328.479 274.266,330.522 270.176,330.422 270.076 C 330.378 270.031,329.864 270.956,329.281 272.131 M347.215 273.260 C 346.837 274.090,346.909 274.267,347.318 273.513 C 347.509 273.160,347.623 272.830,347.571 272.778 C 347.520 272.727,347.359 272.943,347.215 273.260 M35.892 274.944 C 36.145 275.440,36.403 275.847,36.465 275.847 C 36.527 275.847,36.371 275.440,36.117 274.944 C 35.864 274.447,35.606 274.041,35.544 274.041 C 35.482 274.041,35.638 274.447,35.892 274.944 M345.755 276.422 C 344.926 278.112,345.003 278.312,345.850 276.670 C 346.225 275.944,346.493 275.312,346.447 275.266 C 346.401 275.220,346.090 275.740,345.755 276.422 M326.749 276.975 C 326.557 277.348,326.450 277.652,326.512 277.652 C 326.574 277.652,326.783 277.348,326.975 276.975 C 327.168 276.603,327.275 276.298,327.212 276.298 C 327.150 276.298,326.942 276.603,326.749 276.975 M31.828 277.878 C 32.082 278.375,32.340 278.781,32.402 278.781 C 32.464 278.781,32.308 278.375,32.054 277.878 C 31.801 277.381,31.543 276.975,31.481 276.975 C 31.419 276.975,31.575 277.381,31.828 277.878 M37.359 277.652 C 37.552 278.025,37.760 278.330,37.822 278.330 C 37.884 278.330,37.777 278.025,37.585 277.652 C 37.392 277.280,37.184 276.975,37.122 276.975 C 37.060 276.975,37.166 277.280,37.359 277.652 M325.621 279.007 C 325.428 279.379,325.321 279.684,325.383 279.684 C 325.446 279.684,325.654 279.379,325.847 279.007 C 326.039 278.634,326.146 278.330,326.084 278.330 C 326.022 278.330,325.813 278.634,325.621 279.007 M38.262 279.233 C 38.454 279.605,38.663 279.910,38.725 279.910 C 38.787 279.910,38.680 279.605,38.488 279.233 C 38.295 278.860,38.087 278.555,38.025 278.555 C 37.962 278.555,38.069 278.860,38.262 279.233 M33.070 280.135 C 33.263 280.508,33.471 280.813,33.533 280.813 C 33.595 280.813,33.488 280.508,33.296 280.135 C 33.103 279.763,32.895 279.458,32.833 279.458 C 32.771 279.458,32.877 279.763,33.070 280.135 M342.664 282.619 C 342.288 283.363,342.031 283.973,342.093 283.973 C 342.155 283.973,342.513 283.363,342.889 282.619 C 343.265 281.874,343.522 281.264,343.460 281.264 C 343.398 281.264,343.040 281.874,342.664 282.619 M35.637 284.537 C 35.759 284.786,36.024 285.192,36.226 285.440 L 36.594 285.892 36.372 285.440 C 36.250 285.192,35.985 284.786,35.783 284.537 L 35.415 284.086 35.637 284.537 M321.982 285.158 C 321.205 286.476,321.155 286.589,321.550 286.117 C 322.009 285.571,322.404 284.876,322.256 284.876 C 322.197 284.876,322.074 285.003,321.982 285.158 M340.971 285.779 C 340.778 286.151,340.671 286.456,340.733 286.456 C 340.795 286.456,341.004 286.151,341.196 285.779 C 341.389 285.406,341.496 285.102,341.434 285.102 C 341.372 285.102,341.163 285.406,340.971 285.779 M42.330 285.907 C 42.540 286.287,42.913 286.846,43.158 287.148 L 43.604 287.698 43.223 287.005 C 43.013 286.625,42.640 286.066,42.395 285.764 L 41.949 285.214 42.330 285.907 M37.590 287.712 C 37.800 288.093,38.172 288.652,38.418 288.954 L 38.864 289.503 38.482 288.811 C 38.272 288.431,37.900 287.872,37.655 287.570 L 37.208 287.020 37.590 287.712 M339.842 287.810 C 339.649 288.183,339.543 288.488,339.605 288.488 C 339.667 288.488,339.875 288.183,340.068 287.810 C 340.260 287.438,340.367 287.133,340.305 287.133 C 340.243 287.133,340.035 287.438,339.842 287.810 M319.108 289.616 C 318.281 290.858,317.653 291.874,317.713 291.874 C 317.773 291.874,318.415 290.985,319.141 289.898 C 320.680 287.596,320.825 287.359,320.702 287.359 C 320.652 287.359,319.934 288.375,319.108 289.616 M44.921 289.842 C 45.427 290.587,45.892 291.196,45.954 291.196 C 46.016 291.196,45.653 290.587,45.147 289.842 C 44.641 289.097,44.176 288.488,44.114 288.488 C 44.052 288.488,44.415 289.097,44.921 289.842 M46.953 292.777 C 47.218 293.149,47.486 293.454,47.548 293.454 C 47.610 293.454,47.444 293.149,47.178 292.777 C 46.913 292.404,46.645 292.099,46.583 292.099 C 46.521 292.099,46.687 292.404,46.953 292.777 M336.881 292.833 C 336.104 294.151,336.053 294.264,336.449 293.792 C 336.907 293.246,337.302 292.551,337.154 292.551 C 337.095 292.551,336.972 292.678,336.881 292.833 M316.479 293.454 C 316.213 293.826,316.047 294.131,316.109 294.131 C 316.171 294.131,316.439 293.826,316.704 293.454 C 316.970 293.081,317.136 292.777,317.074 292.777 C 317.012 292.777,316.744 293.081,316.479 293.454 M41.761 294.018 C 42.145 294.577,42.510 295.034,42.572 295.034 C 42.635 295.034,42.371 294.577,41.986 294.018 C 41.602 293.459,41.237 293.002,41.175 293.002 C 41.113 293.002,41.376 293.459,41.761 294.018 M314.244 296.501 C 313.358 297.681,312.681 298.646,312.740 298.646 C 312.798 298.646,313.477 297.808,314.248 296.783 C 315.018 295.759,315.747 294.794,315.866 294.639 C 315.985 294.484,316.032 294.357,315.969 294.357 C 315.907 294.357,315.131 295.322,314.244 296.501 M335.752 294.639 C 334.975 295.957,334.924 296.070,335.320 295.598 C 335.779 295.052,336.174 294.357,336.026 294.357 C 335.967 294.357,335.843 294.484,335.752 294.639 M43.115 295.937 C 43.380 296.309,43.648 296.614,43.710 296.614 C 43.772 296.614,43.606 296.309,43.341 295.937 C 43.076 295.564,42.808 295.260,42.746 295.260 C 42.684 295.260,42.850 295.564,43.115 295.937 M51.016 298.194 C 51.409 298.691,51.782 299.097,51.844 299.097 C 51.906 299.097,51.635 298.691,51.242 298.194 C 50.848 297.698,50.476 297.291,50.414 297.291 C 50.351 297.291,50.622 297.698,51.016 298.194 M333.091 298.815 C 332.633 299.529,332.494 299.835,332.782 299.496 C 333.352 298.825,334.169 297.517,334.018 297.517 C 333.966 297.517,333.549 298.101,333.091 298.815 M311.738 299.774 C 311.345 300.271,311.074 300.677,311.136 300.677 C 311.198 300.677,311.571 300.271,311.964 299.774 C 312.357 299.278,312.628 298.871,312.566 298.871 C 312.504 298.871,312.131 299.278,311.738 299.774 M52.822 300.451 C 53.341 301.072,53.817 301.580,53.880 301.580 C 53.942 301.580,53.567 301.072,53.047 300.451 C 52.528 299.831,52.052 299.323,51.990 299.323 C 51.927 299.323,52.302 299.831,52.822 300.451 M47.543 301.816 C 48.133 302.566,48.959 303.557,49.379 304.017 C 49.798 304.477,49.362 303.863,48.410 302.652 C 47.457 301.442,46.631 300.451,46.574 300.451 C 46.518 300.451,46.954 301.065,47.543 301.816 M309.932 302.032 C 309.413 302.652,309.038 303.160,309.100 303.160 C 309.162 303.160,309.638 302.652,310.158 302.032 C 310.678 301.411,311.052 300.903,310.990 300.903 C 310.928 300.903,310.452 301.411,309.932 302.032 M330.700 302.257 C 330.435 302.630,330.268 302.935,330.330 302.935 C 330.393 302.935,330.660 302.630,330.926 302.257 C 331.191 301.885,331.357 301.580,331.295 301.580 C 331.233 301.580,330.965 301.885,330.700 302.257 M55.079 303.231 C 55.079 303.270,55.409 303.600,55.813 303.965 L 56.546 304.628 55.883 303.894 C 55.265 303.210,55.079 303.057,55.079 303.231 M329.571 303.837 C 329.306 304.210,329.140 304.515,329.202 304.515 C 329.264 304.515,329.532 304.210,329.797 303.837 C 330.062 303.465,330.228 303.160,330.166 303.160 C 330.104 303.160,329.836 303.465,329.571 303.837 M306.852 305.700 C 305.753 306.972,304.142 308.787,303.273 309.731 C 301.902 311.222,301.947 311.189,303.612 309.483 C 305.541 307.507,309.153 303.386,308.956 303.386 C 308.898 303.386,307.951 304.427,306.852 305.700 M58.035 306.546 C 60.177 309.023,67.952 316.798,70.429 318.941 C 72.205 320.477,72.180 320.444,70.090 318.497 C 67.191 315.796,61.179 309.784,58.478 306.885 C 56.531 304.795,56.498 304.770,58.035 306.546 M327.337 306.885 C 326.450 308.064,325.773 309.029,325.832 309.029 C 325.891 309.029,326.570 308.191,327.340 307.167 C 328.111 306.143,328.839 305.178,328.958 305.023 C 329.077 304.867,329.124 304.740,329.062 304.740 C 329.000 304.740,328.224 305.705,327.337 306.885 M51.242 306.391 C 51.242 306.430,51.572 306.760,51.975 307.125 L 52.709 307.788 52.046 307.054 C 51.428 306.370,51.242 306.217,51.242 306.391 M54.127 309.650 C 54.995 310.612,55.942 311.603,56.231 311.851 C 56.520 312.099,55.856 311.312,54.754 310.102 C 53.652 308.891,52.705 307.901,52.649 307.901 C 52.594 307.901,53.258 308.688,54.127 309.650 M323.825 311.456 C 322.872 312.666,322.436 313.280,322.856 312.820 C 323.834 311.749,325.796 309.255,325.660 309.255 C 325.604 309.255,324.778 310.245,323.825 311.456 M297.291 315.848 C 294.012 319.057,293.794 319.301,296.275 316.984 C 299.440 314.028,301.767 311.728,301.572 311.750 C 301.514 311.756,299.588 313.600,297.291 315.848 M60.497 316.366 C 62.667 318.538,64.493 320.316,64.555 320.316 C 64.617 320.316,62.892 318.538,60.722 316.366 C 58.552 314.193,56.726 312.415,56.664 312.415 C 56.602 312.415,58.327 314.193,60.497 316.366 M320.189 315.858 L 319.526 316.591 320.260 315.928 C 320.943 315.310,321.097 315.124,320.923 315.124 C 320.884 315.124,320.554 315.454,320.189 315.858 M318.724 317.551 L 317.946 318.397 318.792 317.619 C 319.258 317.192,319.639 316.811,319.639 316.773 C 319.639 316.600,319.448 316.763,318.724 317.551 M311.752 324.901 C 307.096 329.685,306.610 330.227,309.792 327.088 C 313.514 323.417,318.257 318.484,318.027 318.524 C 317.982 318.532,315.159 321.402,311.752 324.901 M291.976 320.824 L 291.084 321.783 292.043 320.891 C 292.935 320.061,293.106 319.865,292.935 319.865 C 292.898 319.865,292.467 320.296,291.976 320.824 M65.124 320.744 C 65.674 321.384,69.074 324.468,69.074 324.326 C 69.074 324.270,68.084 323.323,66.874 322.221 C 65.663 321.120,64.876 320.455,65.124 320.744 M72.460 320.612 C 72.460 320.651,72.791 320.981,73.194 321.346 L 73.928 322.009 73.265 321.275 C 72.647 320.592,72.460 320.438,72.460 320.612 M288.009 324.118 C 283.850 327.631,283.399 328.029,284.632 327.100 C 287.138 325.212,291.369 321.586,290.942 321.691 C 290.896 321.702,289.576 322.794,288.009 324.118 M74.107 322.045 C 74.301 322.360,76.524 324.241,76.524 324.089 C 76.524 324.031,75.944 323.488,75.235 322.883 C 74.526 322.278,74.018 321.901,74.107 322.045 M69.300 324.450 C 69.300 324.489,69.630 324.819,70.034 325.184 L 70.767 325.847 70.104 325.113 C 69.486 324.429,69.300 324.275,69.300 324.450 M77.878 325.131 C 77.878 325.193,78.284 325.566,78.781 325.959 C 79.278 326.353,79.684 326.624,79.684 326.562 C 79.684 326.500,79.278 326.127,78.781 325.734 C 78.284 325.340,77.878 325.069,77.878 325.131 M72.958 327.597 C 74.030 328.574,76.524 330.536,76.524 330.401 C 76.524 330.344,75.533 329.518,74.323 328.565 C 73.112 327.613,72.498 327.177,72.958 327.597 M80.894 327.488 C 81.072 327.777,82.393 328.754,82.393 328.597 C 82.393 328.542,82.020 328.212,81.564 327.864 C 81.108 327.516,80.807 327.347,80.894 327.488 M281.490 329.373 C 280.703 330.063,280.703 330.063,281.427 329.582 C 281.826 329.316,282.213 329.002,282.286 328.883 C 282.504 328.531,282.324 328.642,281.490 329.373 M83.521 329.427 C 83.521 329.490,83.826 329.757,84.199 330.023 C 84.571 330.288,84.876 330.454,84.876 330.392 C 84.876 330.330,84.571 330.062,84.199 329.797 C 83.826 329.532,83.521 329.365,83.521 329.427 M278.894 331.284 L 278.217 331.866 278.950 331.380 C 279.354 331.113,279.684 330.851,279.684 330.797 C 279.684 330.628,279.588 330.687,278.894 331.284 M85.779 331.017 C 85.779 331.079,86.236 331.444,86.795 331.828 C 87.353 332.213,87.810 332.477,87.810 332.414 C 87.810 332.352,87.353 331.987,86.795 331.603 C 86.236 331.218,85.779 330.955,85.779 331.017 M77.733 331.326 C 77.912 331.614,79.233 332.592,79.233 332.435 C 79.233 332.379,78.860 332.049,78.404 331.701 C 77.948 331.354,77.646 331.185,77.733 331.326 M303.837 332.545 C 303.030 333.300,300.894 335.149,299.090 336.654 C 297.286 338.159,295.356 339.780,294.801 340.256 L 293.792 341.121 294.808 340.369 C 297.492 338.381,305.809 331.170,305.418 331.171 C 305.356 331.171,304.644 331.789,303.837 332.545 M277.314 332.413 L 276.637 332.994 277.370 332.509 C 277.774 332.242,278.104 331.980,278.104 331.926 C 278.104 331.757,278.008 331.816,277.314 332.413 M80.361 333.265 C 80.361 333.327,80.666 333.595,81.038 333.860 C 81.411 334.125,81.716 334.291,81.716 334.229 C 81.716 334.167,81.411 333.900,81.038 333.634 C 80.666 333.369,80.361 333.203,80.361 333.265 M89.827 333.817 C 90.129 334.062,90.688 334.435,91.069 334.645 L 91.761 335.026 91.211 334.580 C 90.909 334.335,90.350 333.962,89.970 333.752 L 89.278 333.371 89.827 333.817 M81.941 334.403 C 81.941 334.465,82.398 334.830,82.957 335.214 C 83.516 335.599,83.973 335.863,83.973 335.800 C 83.973 335.738,83.516 335.373,82.957 334.989 C 82.398 334.604,81.941 334.341,81.941 334.403 M270.937 336.595 C 270.167 337.088,269.918 337.418,270.598 337.045 C 271.116 336.760,271.928 336.133,271.783 336.128 C 271.721 336.127,271.340 336.336,270.937 336.595 M269.131 337.723 C 268.362 338.216,268.113 338.547,268.792 338.173 C 269.310 337.889,270.122 337.261,269.977 337.257 C 269.915 337.255,269.534 337.465,269.131 337.723 M97.065 338.250 C 97.065 338.312,97.370 338.521,97.743 338.713 C 98.115 338.906,98.420 339.013,98.420 338.951 C 98.420 338.889,98.115 338.680,97.743 338.488 C 97.370 338.295,97.065 338.188,97.065 338.250 M88.600 338.943 C 88.849 339.145,89.255 339.410,89.503 339.532 L 89.955 339.754 89.503 339.386 C 89.255 339.184,88.849 338.919,88.600 338.797 L 88.149 338.576 88.600 338.943 M98.646 339.153 C 98.646 339.215,98.950 339.424,99.323 339.616 C 99.695 339.809,100.000 339.916,100.000 339.854 C 100.000 339.792,99.695 339.583,99.323 339.391 C 98.950 339.198,98.646 339.091,98.646 339.153 M90.406 340.072 C 90.655 340.274,91.061 340.539,91.309 340.661 L 91.761 340.883 91.309 340.515 C 91.061 340.313,90.655 340.048,90.406 339.926 L 89.955 339.704 90.406 340.072 M101.129 340.510 C 101.129 340.572,101.535 340.830,102.032 341.084 C 102.528 341.337,102.935 341.493,102.935 341.431 C 102.935 341.369,102.528 341.111,102.032 340.858 C 101.535 340.604,101.129 340.448,101.129 340.510 M93.002 341.636 C 93.002 341.698,93.307 341.907,93.679 342.099 C 94.052 342.292,94.357 342.399,94.357 342.337 C 94.357 342.275,94.052 342.066,93.679 341.874 C 93.307 341.681,93.002 341.574,93.002 341.636 M291.648 342.578 C 290.200 343.711,289.991 343.997,291.263 343.105 C 292.212 342.440,292.994 341.738,292.748 341.772 C 292.701 341.779,292.207 342.141,291.648 342.578 M96.163 343.442 C 96.163 343.504,96.467 343.713,96.840 343.905 C 97.212 344.098,97.517 344.205,97.517 344.143 C 97.517 344.080,97.212 343.872,96.840 343.679 C 96.467 343.487,96.163 343.380,96.163 343.442 M109.255 344.695 C 109.690 344.933,110.147 345.128,110.271 345.128 C 110.395 345.128,110.141 344.933,109.707 344.695 C 109.272 344.457,108.815 344.263,108.691 344.263 C 108.567 344.263,108.821 344.457,109.255 344.695 M98.194 344.573 C 98.194 344.635,98.600 344.893,99.097 345.147 C 99.594 345.400,100.000 345.557,100.000 345.495 C 100.000 345.432,99.594 345.174,99.097 344.921 C 98.600 344.668,98.194 344.511,98.194 344.573 M288.375 345.054 L 287.698 345.636 288.431 345.150 C 288.835 344.883,289.165 344.621,289.165 344.567 C 289.165 344.398,289.069 344.457,288.375 345.054 M111.964 345.937 C 112.274 346.114,112.630 346.259,112.754 346.259 C 112.878 346.259,112.726 346.114,112.415 345.937 C 112.105 345.759,111.749 345.614,111.625 345.614 C 111.501 345.614,111.653 345.759,111.964 345.937 M286.512 346.298 C 285.985 346.672,285.553 347.027,285.553 347.089 C 285.553 347.150,286.010 346.886,286.569 346.501 C 287.128 346.117,287.585 345.756,287.585 345.700 C 287.585 345.545,287.542 345.569,286.512 346.298 M102.032 346.613 C 102.032 346.764,104.768 348.129,104.869 348.028 C 104.914 347.983,104.295 347.621,103.492 347.225 C 102.689 346.829,102.032 346.554,102.032 346.613 M271.445 347.856 C 271.637 348.228,271.846 348.533,271.908 348.533 C 271.970 348.533,271.863 348.228,271.670 347.856 C 271.478 347.483,271.269 347.178,271.207 347.178 C 271.145 347.178,271.252 347.483,271.445 347.856 M108.126 349.661 C 108.561 349.899,109.018 350.094,109.142 350.094 C 109.266 350.094,109.012 349.899,108.578 349.661 C 108.143 349.424,107.686 349.229,107.562 349.229 C 107.438 349.229,107.692 349.424,108.126 349.661 M121.670 349.849 C 121.857 349.964,122.263 350.126,122.573 350.209 C 122.966 350.314,123.034 350.296,122.799 350.151 C 122.613 350.036,122.207 349.874,121.896 349.791 C 121.504 349.686,121.435 349.704,121.670 349.849 M280.418 350.365 C 279.648 350.857,279.399 351.188,280.079 350.815 C 280.597 350.530,281.408 349.902,281.264 349.898 C 281.202 349.896,280.821 350.106,280.418 350.365 M110.384 350.677 C 110.694 350.855,111.050 351.000,111.174 351.000 C 111.298 351.000,111.146 350.855,110.835 350.677 C 110.525 350.500,110.169 350.355,110.045 350.355 C 109.921 350.355,110.073 350.500,110.384 350.677 M125.871 351.345 C 126.258 351.523,126.867 351.726,127.226 351.797 C 127.784 351.907,127.764 351.881,127.088 351.616 C 125.869 351.138,125.007 350.946,125.871 351.345 M273.702 351.693 C 273.895 352.065,274.103 352.370,274.165 352.370 C 274.227 352.370,274.120 352.065,273.928 351.693 C 273.735 351.321,273.527 351.016,273.465 351.016 C 273.403 351.016,273.509 351.321,273.702 351.693 " stroke="none" fill="#ec7d6d" fill-rule="evenodd"></path><path id="path3" d="" stroke="none" fill="#ec544c" fill-rule="evenodd"></path><path id="path4" d="M195.989 195.260 C 195.989 195.694,196.036 195.872,196.092 195.655 C 196.149 195.437,196.149 195.082,196.092 194.865 C 196.036 194.647,195.989 194.825,195.989 195.260 M203.684 199.097 C 203.684 199.904,203.725 200.234,203.775 199.831 C 203.825 199.427,203.825 198.767,203.775 198.363 C 203.725 197.960,203.684 198.290,203.684 199.097 M195.989 202.935 C 195.989 203.369,196.036 203.547,196.092 203.330 C 196.149 203.112,196.149 202.757,196.092 202.540 C 196.036 202.322,195.989 202.500,195.989 202.935 " stroke="none" fill="#e84434" fill-rule="evenodd"></path></g></svg>