<svg xmlns="http://www.w3.org/2000/svg" xmlns:xlink="http://www.w3.org/1999/xlink" version="1.1" x="0px" y="0px" viewBox="0 0 96 120" enable-background="new 0 0 96 96" xml:space="preserve"><circle cx="48" cy="38.897" r="1.231"/><path d="M7.65,39.708l17.761,6.259v-0.002L48,53.928l28.601-10.07l-26.02-4.106c-0.361,1.086-1.375,1.877-2.581,1.877  c-1.506,0-2.731-1.225-2.731-2.731c0-1.506,1.225-2.731,2.731-2.731c1.279,0,2.348,0.887,2.643,2.077l28.936,4.566l8.772-3.089  L48,23.878L7.65,39.708z"/><polygon points="26.911,48.086 26.911,72.178 69.089,72.178 69.089,48.097 48,55.518 "/><rect x="77.792" y="60.727" width="3.722" height="11.451"/><polygon points="78.903,44.636 78.903,59.227 80.403,59.227 80.403,44.108 "/><text x="0" y="111" fill="#000000" font-size="5px" font-weight="bold" font-family="'Helvetica Neue', Helvetica, Arial-Unicode, Arial, Sans-serif">Created by glyph.faisalovers</text><text x="0" y="116" fill="#000000" font-size="5px" font-weight="bold" font-family="'Helvetica Neue', Helvetica, Arial-Unicode, Arial, Sans-serif">from the Noun Project</text></svg>