<svg id="svg" version="1.1" width="400" height="400" viewBox="0 0 400 400" xmlns="http://www.w3.org/2000/svg" xmlns:xlink="http://www.w3.org/1999/xlink" ><g id="svgg"><path id="path0" d="M195.200 86.000 C 195.200 86.220,194.845 86.400,194.412 86.400 C 193.979 86.400,192.983 86.760,192.200 87.200 C 191.417 87.640,190.421 88.000,189.988 88.000 C 189.555 88.000,189.200 88.180,189.200 88.400 C 189.200 88.620,188.840 88.800,188.400 88.800 C 187.960 88.800,187.600 88.980,187.600 89.200 C 187.600 89.420,187.060 89.600,186.400 89.600 C 185.740 89.600,185.200 89.760,185.200 89.955 C 185.200 90.151,184.548 90.433,183.751 90.583 C 182.954 90.732,182.009 91.001,181.651 91.181 C 180.965 91.524,179.273 92.242,177.600 92.900 C 177.050 93.116,176.287 93.452,175.905 93.647 C 175.523 93.841,174.938 94.000,174.605 94.000 C 174.272 94.000,174.000 94.180,174.000 94.400 C 174.000 94.620,173.676 94.800,173.280 94.800 C 172.386 94.800,170.407 95.694,170.403 96.100 C 170.401 96.265,169.860 96.400,169.200 96.400 C 168.540 96.400,168.000 96.560,168.000 96.755 C 168.000 96.951,167.348 97.233,166.551 97.383 C 165.754 97.532,164.764 97.822,164.351 98.027 C 163.938 98.232,163.242 98.580,162.805 98.800 C 162.368 99.020,161.648 99.200,161.205 99.200 C 160.762 99.200,160.400 99.380,160.400 99.600 C 160.400 99.820,159.950 100.000,159.400 100.000 C 158.850 100.000,158.400 100.180,158.400 100.400 C 158.400 100.620,158.040 100.800,157.600 100.800 C 157.160 100.800,156.800 100.980,156.800 101.200 C 156.800 101.420,156.260 101.600,155.600 101.600 C 154.940 101.600,154.400 101.780,154.400 102.000 C 154.400 102.220,154.040 102.400,153.600 102.400 C 153.160 102.400,152.800 102.580,152.800 102.800 C 152.800 103.020,152.350 103.200,151.800 103.200 C 151.250 103.200,150.800 103.369,150.800 103.575 C 150.800 103.782,149.988 104.073,148.995 104.222 C 148.002 104.371,147.092 104.652,146.971 104.846 C 146.851 105.041,146.403 105.200,145.976 105.200 C 145.549 105.200,145.200 105.380,145.200 105.600 C 145.200 105.820,144.750 106.000,144.200 106.000 C 143.650 106.000,143.200 106.180,143.200 106.400 C 143.200 106.620,142.761 106.800,142.224 106.800 C 141.687 106.800,141.136 106.980,141.000 107.200 C 140.864 107.420,140.403 107.600,139.976 107.600 C 139.549 107.600,139.200 107.780,139.200 108.000 C 139.200 108.220,138.750 108.400,138.200 108.400 C 137.650 108.400,137.200 108.580,137.200 108.800 C 137.200 109.020,136.840 109.200,136.400 109.200 C 135.960 109.200,135.600 109.380,135.600 109.600 C 135.600 109.820,135.060 110.000,134.400 110.000 C 133.740 110.000,133.200 110.164,133.200 110.365 C 133.200 110.566,132.481 110.851,131.602 111.000 C 130.723 111.148,129.903 111.434,129.778 111.635 C 129.654 111.836,129.203 112.000,128.776 112.000 C 128.349 112.000,128.000 112.180,128.000 112.400 C 128.000 112.620,127.638 112.800,127.195 112.800 C 126.752 112.800,126.032 112.980,125.595 113.200 C 125.158 113.420,124.442 113.780,124.005 114.000 C 123.568 114.220,122.938 114.400,122.605 114.400 C 122.272 114.400,122.000 114.580,122.000 114.800 C 122.000 115.020,121.550 115.200,121.000 115.200 C 120.450 115.200,120.000 115.380,120.000 115.600 C 120.000 115.820,119.550 116.000,119.000 116.000 C 118.450 116.000,118.000 116.180,118.000 116.400 C 118.000 116.620,117.550 116.800,117.000 116.800 C 116.450 116.800,116.000 116.980,116.000 117.200 C 116.000 117.420,115.751 117.600,115.446 117.600 C 114.465 117.600,110.800 118.910,110.800 119.261 C 110.800 119.447,110.260 119.600,109.600 119.600 C 108.940 119.600,108.400 119.780,108.400 120.000 C 108.400 120.220,108.128 120.400,107.795 120.400 C 107.462 120.400,106.877 120.559,106.495 120.753 C 106.113 120.948,105.260 121.329,104.600 121.600 C 103.940 121.871,103.087 122.252,102.705 122.447 C 102.323 122.641,101.738 122.800,101.405 122.800 C 101.072 122.800,100.800 122.960,100.800 123.155 C 100.800 123.350,99.990 123.631,99.000 123.779 C 98.010 123.928,97.200 124.218,97.200 124.425 C 97.200 124.631,96.761 124.800,96.224 124.800 C 95.687 124.800,95.136 124.980,95.000 125.200 C 94.864 125.420,94.403 125.600,93.976 125.600 C 93.549 125.600,93.200 125.780,93.200 126.000 C 93.200 126.220,92.750 126.400,92.200 126.400 C 91.650 126.400,91.200 126.580,91.200 126.800 C 91.200 127.020,90.840 127.200,90.400 127.200 C 89.960 127.200,89.600 127.380,89.600 127.600 C 89.600 127.820,89.060 128.000,88.400 128.000 C 87.740 128.000,87.200 128.180,87.200 128.400 C 87.200 128.620,86.851 128.800,86.424 128.800 C 85.997 128.800,85.536 128.980,85.400 129.200 C 85.264 129.420,84.803 129.600,84.376 129.600 C 83.949 129.600,83.600 129.757,83.600 129.949 C 83.600 130.141,82.872 130.414,81.983 130.556 C 81.093 130.699,79.968 131.020,79.483 131.270 C 77.608 132.236,77.191 132.400,76.605 132.400 C 76.272 132.400,76.000 132.580,76.000 132.800 C 76.000 133.020,75.561 133.200,75.024 133.200 C 74.487 133.200,73.936 133.380,73.800 133.600 C 73.664 133.820,73.203 134.000,72.776 134.000 C 72.349 134.000,72.000 134.180,72.000 134.400 C 72.000 134.620,71.550 134.800,71.000 134.800 C 70.450 134.800,70.000 134.980,70.000 135.200 C 70.000 135.420,69.640 135.600,69.200 135.600 C 68.760 135.600,68.400 135.780,68.400 136.000 C 68.400 136.220,67.860 136.400,67.200 136.400 C 66.540 136.400,66.000 136.580,66.000 136.800 C 66.000 137.020,65.595 137.201,65.100 137.202 C 64.605 137.204,63.746 137.442,63.191 137.731 C 62.637 138.021,61.332 138.509,60.291 138.816 C 59.251 139.123,58.400 139.515,58.400 139.687 C 58.400 139.859,57.950 140.000,57.400 140.000 C 56.850 140.000,56.400 140.180,56.400 140.400 C 56.400 140.620,56.040 140.800,55.600 140.800 C 55.160 140.800,54.800 140.980,54.800 141.200 C 54.800 141.420,54.260 141.600,53.600 141.600 C 52.940 141.600,52.400 141.780,52.400 142.000 C 52.400 142.220,52.040 142.400,51.600 142.400 C 51.160 142.400,50.800 142.580,50.800 142.800 C 50.800 143.020,50.350 143.200,49.800 143.200 C 49.250 143.200,48.800 143.364,48.800 143.565 C 48.800 143.766,48.082 144.051,47.204 144.199 C 46.326 144.348,44.894 144.814,44.023 145.235 C 43.152 145.656,42.160 146.000,41.819 146.000 C 41.479 146.000,41.200 146.180,41.200 146.400 C 41.200 146.620,40.750 146.800,40.200 146.800 C 39.650 146.800,39.200 146.980,39.200 147.200 C 39.200 147.420,38.840 147.600,38.400 147.600 C 37.960 147.600,37.600 147.780,37.600 148.000 C 37.600 148.220,37.060 148.400,36.400 148.400 C 35.740 148.400,35.200 148.580,35.200 148.800 C 35.200 149.020,34.840 149.200,34.400 149.200 C 33.960 149.200,33.600 149.380,33.600 149.600 C 33.600 149.820,33.261 150.000,32.846 150.000 C 32.431 150.000,31.576 150.269,30.946 150.598 C 30.316 150.926,29.483 151.196,29.095 151.198 C 28.707 151.199,28.032 151.380,27.595 151.600 C 27.158 151.820,26.442 152.180,26.005 152.400 C 25.568 152.620,24.938 152.800,24.605 152.800 C 24.272 152.800,24.000 152.980,24.000 153.200 C 24.000 153.420,23.561 153.600,23.024 153.600 C 22.487 153.600,21.936 153.780,21.800 154.000 C 21.664 154.220,21.203 154.400,20.776 154.400 C 20.349 154.400,20.000 154.580,20.000 154.800 C 20.000 155.020,19.550 155.200,19.000 155.200 C 18.450 155.200,18.000 155.380,18.000 155.600 C 18.000 155.820,17.640 156.000,17.200 156.000 C 16.760 156.000,16.400 156.180,16.400 156.400 C 16.400 156.620,15.860 156.800,15.200 156.800 C 14.540 156.800,14.000 156.960,14.000 157.155 C 14.000 157.351,13.348 157.633,12.551 157.783 C 11.754 157.932,10.764 158.222,10.351 158.427 C 9.938 158.632,9.242 158.980,8.805 159.200 C 8.368 159.420,7.745 159.600,7.420 159.600 C 6.725 159.600,5.854 161.041,6.205 161.608 C 6.338 161.824,6.786 162.000,7.200 162.000 C 7.614 162.000,8.054 162.163,8.177 162.363 C 8.300 162.562,9.301 162.849,10.400 163.000 C 11.500 163.151,12.400 163.438,12.400 163.638 C 12.400 163.837,12.749 164.000,13.176 164.000 C 13.603 164.000,14.064 164.180,14.200 164.400 C 14.336 164.620,14.887 164.800,15.424 164.800 C 15.961 164.800,16.400 164.980,16.400 165.200 C 16.400 165.420,16.839 165.600,17.376 165.600 C 17.913 165.600,18.464 165.780,18.600 166.000 C 18.736 166.220,19.287 166.400,19.824 166.400 C 20.361 166.400,20.800 166.580,20.800 166.800 C 20.800 167.020,21.340 167.200,22.000 167.200 C 22.660 167.200,23.200 167.380,23.200 167.600 C 23.200 167.820,23.562 168.000,24.005 168.000 C 24.448 168.000,25.168 168.180,25.605 168.400 C 26.042 168.620,26.752 168.977,27.183 169.192 C 27.613 169.408,28.697 169.702,29.591 169.845 C 30.486 169.988,31.314 170.261,31.432 170.453 C 31.551 170.644,32.087 170.800,32.624 170.800 C 33.161 170.800,33.600 170.980,33.600 171.200 C 33.600 171.420,34.140 171.600,34.800 171.600 C 35.460 171.600,36.000 171.780,36.000 172.000 C 36.000 172.220,36.450 172.400,37.000 172.400 C 37.550 172.400,38.000 172.580,38.000 172.800 C 38.000 173.020,38.362 173.200,38.805 173.200 C 39.248 173.200,40.013 173.408,40.505 173.662 C 42.431 174.658,42.817 174.800,43.595 174.800 C 44.038 174.800,44.400 174.980,44.400 175.200 C 44.400 175.420,44.839 175.600,45.376 175.600 C 45.913 175.600,46.454 175.763,46.577 175.963 C 46.700 176.162,47.701 176.449,48.800 176.600 C 49.900 176.751,50.800 177.038,50.800 177.238 C 50.800 177.437,51.162 177.600,51.605 177.600 C 52.048 177.600,52.768 177.780,53.205 178.000 C 53.642 178.220,54.358 178.580,54.795 178.800 C 55.232 179.020,55.952 179.200,56.395 179.200 C 56.838 179.200,57.200 179.380,57.200 179.600 C 57.200 179.820,57.650 180.000,58.200 180.000 C 58.750 180.000,59.200 180.180,59.200 180.400 C 59.200 180.620,59.740 180.800,60.400 180.800 C 61.060 180.800,61.600 180.980,61.600 181.200 C 61.600 181.420,62.140 181.600,62.800 181.600 C 63.460 181.600,64.000 181.780,64.000 182.000 C 64.000 182.220,64.439 182.400,64.976 182.400 C 65.513 182.400,66.058 182.570,66.186 182.777 C 66.314 182.984,67.224 183.275,68.209 183.422 C 69.194 183.570,70.000 183.850,70.000 184.045 C 70.000 184.240,70.439 184.400,70.976 184.400 C 71.513 184.400,72.064 184.580,72.200 184.800 C 72.336 185.020,72.887 185.200,73.424 185.200 C 73.961 185.200,74.400 185.380,74.400 185.600 C 74.400 185.820,74.940 186.000,75.600 186.000 C 76.260 186.000,76.800 186.180,76.800 186.400 C 76.800 186.620,77.250 186.800,77.800 186.800 C 78.350 186.800,78.800 186.980,78.800 187.200 C 78.800 187.420,79.162 187.600,79.605 187.600 C 80.048 187.600,80.723 187.759,81.105 187.953 C 83.481 189.162,87.281 190.400,88.614 190.400 C 89.156 190.400,89.600 190.580,89.600 190.800 C 89.600 191.020,90.050 191.200,90.600 191.200 C 91.150 191.200,91.600 191.380,91.600 191.600 C 91.600 191.820,91.962 192.000,92.405 192.000 C 92.848 192.000,93.568 192.180,94.005 192.400 C 94.442 192.620,95.158 192.980,95.595 193.200 C 96.032 193.420,96.752 193.600,97.195 193.600 C 97.638 193.600,98.000 193.780,98.000 194.000 C 98.000 194.220,98.439 194.400,98.976 194.400 C 99.513 194.400,100.064 194.580,100.200 194.800 C 100.336 195.020,100.887 195.200,101.424 195.200 C 101.961 195.200,102.400 195.380,102.400 195.600 C 102.400 195.820,102.839 196.000,103.376 196.000 C 103.913 196.000,104.458 196.170,104.586 196.377 C 104.714 196.584,105.624 196.875,106.609 197.022 C 107.594 197.170,108.400 197.450,108.400 197.645 C 108.400 197.840,108.940 198.000,109.600 198.000 C 110.260 198.000,110.800 198.180,110.800 198.400 C 110.800 198.620,111.250 198.800,111.800 198.800 C 112.350 198.800,112.800 198.980,112.800 199.200 C 112.800 199.420,113.340 199.600,114.000 199.600 C 114.660 199.600,115.200 199.780,115.200 200.000 C 115.200 200.220,115.740 200.400,116.400 200.400 C 117.060 200.400,117.600 200.580,117.600 200.800 C 117.600 201.020,117.872 201.200,118.205 201.200 C 118.538 201.200,119.123 201.374,119.505 201.587 C 120.564 202.178,123.929 203.200,124.814 203.200 C 125.246 203.200,125.600 203.380,125.600 203.600 C 125.600 203.820,126.140 204.000,126.800 204.000 C 127.460 204.000,128.000 204.180,128.000 204.400 C 128.000 204.620,128.540 204.800,129.200 204.800 C 129.860 204.800,130.400 204.980,130.400 205.200 C 130.400 205.420,130.672 205.600,131.005 205.600 C 131.338 205.600,131.968 205.780,132.405 206.000 C 132.842 206.220,133.558 206.580,133.995 206.800 C 134.432 207.020,135.152 207.200,135.595 207.200 C 136.038 207.200,136.400 207.380,136.400 207.600 C 136.400 207.820,136.839 208.000,137.376 208.000 C 137.913 208.000,138.464 208.180,138.600 208.400 C 138.736 208.620,139.276 208.800,139.800 208.800 C 140.324 208.800,140.849 208.956,140.968 209.147 C 141.086 209.339,141.914 209.612,142.809 209.755 C 143.703 209.898,144.787 210.192,145.217 210.408 C 145.648 210.623,146.358 210.980,146.795 211.200 C 147.232 211.420,147.952 211.600,148.395 211.600 C 148.838 211.600,149.200 211.780,149.200 212.000 C 149.200 212.220,149.639 212.400,150.176 212.400 C 150.713 212.400,151.264 212.580,151.400 212.800 C 151.536 213.020,152.087 213.200,152.624 213.200 C 153.161 213.200,153.600 213.380,153.600 213.600 C 153.600 213.820,154.140 214.000,154.800 214.000 C 155.460 214.000,156.000 214.180,156.000 214.400 C 156.000 214.620,156.362 214.800,156.805 214.800 C 157.248 214.800,157.968 214.980,158.405 215.200 C 158.842 215.420,159.552 215.777,159.983 215.992 C 160.413 216.208,161.497 216.502,162.391 216.645 C 163.286 216.788,164.114 217.061,164.232 217.253 C 164.351 217.444,164.887 217.600,165.424 217.600 C 165.961 217.600,166.400 217.780,166.400 218.000 C 166.400 218.220,166.940 218.400,167.600 218.400 C 168.260 218.400,168.800 218.580,168.800 218.800 C 168.800 219.020,169.250 219.200,169.800 219.200 C 170.350 219.200,170.800 219.380,170.800 219.600 C 170.800 219.820,171.162 220.000,171.605 220.000 C 172.383 220.000,172.769 220.142,174.695 221.138 C 175.187 221.392,175.952 221.600,176.395 221.600 C 176.838 221.600,177.200 221.780,177.200 222.000 C 177.200 222.220,177.639 222.400,178.176 222.400 C 178.713 222.400,179.251 222.559,179.371 222.754 C 179.492 222.948,180.429 223.233,181.454 223.387 C 182.479 223.541,183.651 223.832,184.059 224.033 C 184.466 224.235,185.158 224.580,185.595 224.800 C 186.032 225.020,186.662 225.200,186.995 225.200 C 187.328 225.200,187.600 225.380,187.600 225.600 C 187.600 225.820,188.140 226.000,188.800 226.000 C 189.460 226.000,190.000 226.180,190.000 226.400 C 190.000 226.620,190.439 226.800,190.976 226.800 C 191.513 226.800,192.064 226.980,192.200 227.200 C 192.336 227.420,192.887 227.600,193.424 227.600 C 193.961 227.600,194.400 227.780,194.400 228.000 C 194.400 228.226,195.533 228.400,197.000 228.400 C 198.467 228.400,199.600 228.226,199.600 228.000 C 199.600 227.780,200.039 227.600,200.576 227.600 C 201.113 227.600,201.664 227.420,201.800 227.200 C 201.936 226.980,202.487 226.800,203.024 226.800 C 203.561 226.800,204.000 226.620,204.000 226.400 C 204.000 226.180,204.540 226.000,205.200 226.000 C 205.860 226.000,206.400 225.820,206.400 225.600 C 206.400 225.380,206.850 225.200,207.400 225.200 C 207.950 225.200,208.400 225.020,208.400 224.800 C 208.400 224.580,208.749 224.400,209.176 224.400 C 209.603 224.400,210.054 224.237,210.177 224.037 C 210.300 223.838,211.300 223.551,212.400 223.400 C 213.500 223.249,214.500 222.962,214.623 222.763 C 214.746 222.563,215.287 222.400,215.824 222.400 C 216.361 222.400,216.800 222.220,216.800 222.000 C 216.800 221.780,217.239 221.600,217.776 221.600 C 218.313 221.600,218.864 221.420,219.000 221.200 C 219.136 220.980,219.687 220.800,220.224 220.800 C 220.761 220.800,221.200 220.620,221.200 220.400 C 221.200 220.180,221.650 220.000,222.200 220.000 C 222.750 220.000,223.200 219.820,223.200 219.600 C 223.200 219.380,223.650 219.200,224.200 219.200 C 224.750 219.200,225.200 219.020,225.200 218.800 C 225.200 218.580,225.740 218.400,226.400 218.400 C 227.060 218.400,227.600 218.220,227.600 218.000 C 227.600 217.780,228.039 217.600,228.576 217.600 C 229.113 217.600,229.651 217.441,229.771 217.246 C 229.892 217.052,230.798 216.771,231.786 216.623 C 232.773 216.475,233.686 216.184,233.814 215.977 C 233.942 215.770,234.487 215.600,235.024 215.600 C 235.561 215.600,236.000 215.420,236.000 215.200 C 236.000 214.980,236.450 214.800,237.000 214.800 C 237.550 214.800,238.000 214.620,238.000 214.400 C 238.000 214.180,238.540 214.000,239.200 214.000 C 239.860 214.000,240.400 213.820,240.400 213.600 C 240.400 213.380,240.839 213.200,241.376 213.200 C 241.913 213.200,242.464 213.020,242.600 212.800 C 242.736 212.580,243.287 212.400,243.824 212.400 C 244.361 212.400,244.800 212.220,244.800 212.000 C 244.800 211.780,245.162 211.600,245.605 211.600 C 246.048 211.600,246.768 211.420,247.205 211.200 C 247.642 210.980,248.352 210.623,248.783 210.408 C 249.213 210.192,250.297 209.898,251.191 209.755 C 252.086 209.612,252.914 209.339,253.032 209.147 C 253.151 208.956,253.676 208.800,254.200 208.800 C 254.724 208.800,255.264 208.620,255.400 208.400 C 255.536 208.180,256.087 208.000,256.624 208.000 C 257.161 208.000,257.600 207.820,257.600 207.600 C 257.600 207.380,257.962 207.200,258.405 207.200 C 258.848 207.200,259.568 207.020,260.005 206.800 C 260.442 206.580,261.158 206.220,261.595 206.000 C 262.032 205.780,262.662 205.600,262.995 205.600 C 263.328 205.600,263.600 205.420,263.600 205.200 C 263.600 204.980,264.140 204.800,264.800 204.800 C 265.460 204.800,266.000 204.620,266.000 204.400 C 266.000 204.180,266.540 204.000,267.200 204.000 C 267.860 204.000,268.400 203.820,268.400 203.600 C 268.400 203.380,268.754 203.200,269.186 203.200 C 270.071 203.200,273.436 202.178,274.495 201.587 C 274.877 201.374,275.552 201.200,275.995 201.200 C 276.438 201.200,276.800 201.020,276.800 200.800 C 276.800 200.580,277.250 200.400,277.800 200.400 C 278.350 200.400,278.800 200.220,278.800 200.000 C 278.800 199.780,279.340 199.600,280.000 199.600 C 280.660 199.600,281.200 199.420,281.200 199.200 C 281.200 198.980,281.650 198.800,282.200 198.800 C 282.750 198.800,283.200 198.620,283.200 198.400 C 283.200 198.180,283.740 198.000,284.400 198.000 C 285.060 198.000,285.600 197.840,285.600 197.645 C 285.600 197.450,286.406 197.170,287.391 197.022 C 288.376 196.875,289.286 196.584,289.414 196.377 C 289.542 196.170,290.087 196.000,290.624 196.000 C 291.161 196.000,291.600 195.820,291.600 195.600 C 291.600 195.380,292.140 195.200,292.800 195.200 C 293.460 195.200,294.000 195.020,294.000 194.800 C 294.000 194.580,294.439 194.400,294.976 194.400 C 295.513 194.400,296.064 194.220,296.200 194.000 C 296.336 193.780,296.887 193.600,297.424 193.600 C 297.961 193.600,298.400 193.420,298.400 193.200 C 298.400 192.980,298.762 192.800,299.205 192.800 C 299.983 192.800,300.369 192.658,302.295 191.662 C 302.787 191.408,303.462 191.200,303.795 191.200 C 304.128 191.200,304.400 191.041,304.400 190.846 C 304.400 190.651,305.387 190.369,306.594 190.218 C 307.800 190.067,308.891 189.777,309.017 189.572 C 309.144 189.367,309.687 189.200,310.224 189.200 C 310.761 189.200,311.200 189.020,311.200 188.800 C 311.200 188.580,311.562 188.400,312.005 188.400 C 312.448 188.400,313.168 188.220,313.605 188.000 C 314.042 187.780,314.758 187.420,315.195 187.200 C 315.632 186.980,316.262 186.800,316.595 186.800 C 316.928 186.800,317.200 186.620,317.200 186.400 C 317.200 186.180,317.740 186.000,318.400 186.000 C 319.060 186.000,319.600 185.820,319.600 185.600 C 319.600 185.380,320.140 185.200,320.800 185.200 C 321.460 185.200,322.000 185.020,322.000 184.800 C 322.000 184.580,322.450 184.400,323.000 184.400 C 323.550 184.400,324.000 184.244,324.000 184.054 C 324.000 183.864,324.806 183.598,325.791 183.463 C 326.776 183.328,327.946 183.034,328.391 182.809 C 328.836 182.584,329.558 182.220,329.995 182.000 C 330.432 181.780,331.152 181.600,331.595 181.600 C 332.060 181.600,332.400 181.335,332.400 180.971 C 332.400 179.820,331.318 179.200,329.309 179.200 C 328.237 179.200,327.189 179.036,326.980 178.835 C 326.771 178.635,325.610 178.369,324.400 178.245 C 323.190 178.121,320.085 177.807,317.500 177.548 C 314.915 177.288,312.800 176.923,312.800 176.738 C 312.800 176.552,311.731 176.400,310.424 176.400 C 309.117 176.400,307.936 176.220,307.800 176.000 C 307.664 175.780,306.584 175.600,305.400 175.600 C 304.216 175.600,303.136 175.420,303.000 175.200 C 302.864 174.980,301.773 174.800,300.576 174.800 C 299.379 174.800,298.400 174.620,298.400 174.400 C 298.400 174.178,297.341 174.000,296.024 174.000 C 294.717 174.000,293.536 173.820,293.400 173.600 C 293.264 173.380,292.184 173.200,291.000 173.200 C 289.816 173.200,288.736 173.020,288.600 172.800 C 288.464 172.580,287.384 172.400,286.200 172.400 C 285.016 172.400,283.936 172.220,283.800 172.000 C 283.664 171.780,282.494 171.600,281.200 171.600 C 279.906 171.600,278.745 171.435,278.621 171.234 C 278.496 171.032,276.416 170.739,273.997 170.582 C 271.579 170.425,269.600 170.140,269.600 169.949 C 269.600 169.757,268.531 169.600,267.224 169.600 C 265.917 169.600,264.736 169.420,264.600 169.200 C 264.464 168.980,263.373 168.800,262.176 168.800 C 260.979 168.800,260.000 168.620,260.000 168.400 C 260.000 168.180,259.021 168.000,257.824 168.000 C 256.627 168.000,255.536 167.820,255.400 167.600 C 255.264 167.380,254.094 167.200,252.800 167.200 C 251.506 167.200,250.336 167.020,250.200 166.800 C 250.064 166.580,248.973 166.400,247.776 166.400 C 246.579 166.400,245.600 166.236,245.600 166.036 C 245.600 165.835,244.565 165.569,243.300 165.444 C 237.176 164.838,236.171 164.698,235.800 164.402 C 235.580 164.226,233.465 163.952,231.100 163.793 C 228.735 163.634,226.800 163.346,226.800 163.152 C 226.800 162.958,225.731 162.800,224.424 162.800 C 223.117 162.800,221.936 162.620,221.800 162.400 C 221.664 162.180,220.483 162.000,219.176 162.000 C 217.859 162.000,216.800 161.822,216.800 161.600 C 216.800 161.380,215.821 161.200,214.624 161.200 C 213.427 161.200,212.336 161.020,212.200 160.800 C 211.518 159.696,208.000 160.597,208.000 161.875 C 208.000 162.721,203.989 167.200,203.231 167.200 C 202.994 167.200,202.800 167.380,202.800 167.600 C 202.800 167.820,202.440 168.000,202.000 168.000 C 201.560 168.000,201.200 168.180,201.200 168.400 C 201.200 168.620,200.570 168.800,199.800 168.800 C 199.030 168.800,198.400 168.980,198.400 169.200 C 198.400 169.420,197.770 169.600,197.000 169.600 C 196.230 169.600,195.600 169.420,195.600 169.200 C 195.600 168.980,194.970 168.800,194.200 168.800 C 193.430 168.800,192.800 168.620,192.800 168.400 C 192.800 168.180,192.440 168.000,192.000 168.000 C 191.560 168.000,191.200 167.820,191.200 167.600 C 191.200 167.380,191.015 167.200,190.789 167.200 C 190.255 167.200,186.800 163.745,186.800 163.211 C 186.800 162.985,186.620 162.800,186.400 162.800 C 186.180 162.800,186.000 162.440,186.000 162.000 C 186.000 161.560,185.820 161.200,185.600 161.200 C 185.380 161.200,185.200 160.658,185.200 159.995 C 185.200 159.332,184.977 158.432,184.704 157.995 C 184.309 157.362,184.309 157.038,184.704 156.405 C 184.977 155.968,185.200 154.978,185.200 154.205 C 185.200 153.432,185.380 152.800,185.600 152.800 C 185.820 152.800,186.000 152.480,186.000 152.088 C 186.000 151.697,186.360 151.117,186.800 150.800 C 187.240 150.483,187.600 150.075,187.600 149.894 C 187.600 149.465,189.465 147.600,189.894 147.600 C 190.075 147.600,190.483 147.240,190.800 146.800 C 191.117 146.360,191.787 146.000,192.288 146.000 C 192.790 146.000,193.200 145.820,193.200 145.600 C 193.200 145.363,194.659 145.200,196.776 145.200 C 198.743 145.200,200.464 145.380,200.600 145.600 C 200.736 145.820,201.247 146.000,201.735 146.000 C 202.224 146.000,202.883 146.360,203.200 146.800 C 203.517 147.240,203.925 147.600,204.106 147.600 C 204.535 147.600,206.400 149.465,206.400 149.894 C 206.400 150.075,206.760 150.483,207.200 150.800 C 207.640 151.117,208.000 151.699,208.000 152.094 C 208.000 152.885,208.775 154.435,209.400 154.894 C 209.620 155.056,210.745 155.191,211.900 155.194 C 213.055 155.197,214.000 155.380,214.000 155.600 C 214.000 155.820,214.912 156.000,216.026 156.000 C 217.141 156.000,218.367 156.168,218.751 156.374 C 219.135 156.579,221.463 156.875,223.925 157.031 C 226.386 157.186,228.400 157.468,228.400 157.657 C 228.400 157.846,229.390 158.000,230.600 158.000 C 231.810 158.000,232.800 158.180,232.800 158.400 C 232.800 158.622,233.867 158.800,235.200 158.800 C 236.533 158.800,237.600 158.978,237.600 159.200 C 237.600 159.426,238.733 159.600,240.200 159.600 C 241.667 159.600,242.800 159.774,242.800 160.000 C 242.800 160.220,243.779 160.400,244.976 160.400 C 246.173 160.400,247.264 160.580,247.400 160.800 C 247.536 161.020,248.616 161.200,249.800 161.200 C 250.984 161.200,252.064 161.380,252.200 161.600 C 252.336 161.820,253.506 162.000,254.800 162.000 C 256.094 162.000,257.253 162.163,257.376 162.361 C 257.499 162.560,259.492 162.852,261.806 163.010 C 264.119 163.167,266.110 163.455,266.230 163.648 C 266.349 163.842,267.517 164.000,268.824 164.000 C 270.141 164.000,271.200 164.178,271.200 164.400 C 271.200 164.622,272.267 164.800,273.600 164.800 C 274.933 164.800,276.000 164.978,276.000 165.200 C 276.000 165.420,276.979 165.600,278.176 165.600 C 279.373 165.600,280.464 165.780,280.600 166.000 C 280.736 166.220,281.917 166.400,283.224 166.400 C 284.541 166.400,285.600 166.578,285.600 166.800 C 285.600 167.022,286.667 167.200,288.000 167.200 C 289.320 167.200,290.400 167.364,290.400 167.564 C 290.400 167.765,291.435 168.031,292.700 168.156 C 298.824 168.762,299.829 168.902,300.200 169.198 C 300.420 169.374,302.535 169.648,304.900 169.807 C 307.265 169.966,309.200 170.254,309.200 170.448 C 309.200 170.642,310.370 170.800,311.800 170.800 C 313.267 170.800,314.400 170.974,314.400 171.200 C 314.400 171.420,315.379 171.600,316.576 171.600 C 317.773 171.600,318.864 171.780,319.000 172.000 C 319.136 172.220,320.216 172.400,321.400 172.400 C 322.584 172.400,323.664 172.580,323.800 172.800 C 323.936 173.020,325.117 173.200,326.424 173.200 C 327.741 173.200,328.800 173.378,328.800 173.600 C 328.800 173.820,329.779 174.000,330.976 174.000 C 332.173 174.000,333.264 174.180,333.400 174.400 C 333.536 174.620,334.616 174.800,335.800 174.800 C 336.984 174.800,338.064 174.980,338.200 175.200 C 338.336 175.420,339.506 175.600,340.800 175.600 C 342.094 175.600,343.264 175.780,343.400 176.000 C 343.722 176.521,347.078 176.521,347.400 176.000 C 347.536 175.780,348.076 175.600,348.600 175.600 C 349.124 175.600,349.664 175.420,349.800 175.200 C 349.936 174.980,350.487 174.800,351.024 174.800 C 351.561 174.800,352.000 174.620,352.000 174.400 C 352.000 174.180,352.362 174.000,352.805 174.000 C 353.248 174.000,353.968 173.820,354.405 173.600 C 354.842 173.380,355.558 173.020,355.995 172.800 C 356.432 172.580,357.062 172.400,357.395 172.400 C 357.728 172.400,358.000 172.220,358.000 172.000 C 358.000 171.780,358.540 171.600,359.200 171.600 C 359.860 171.600,360.400 171.420,360.400 171.200 C 360.400 170.980,360.839 170.800,361.376 170.800 C 361.913 170.800,362.464 170.620,362.600 170.400 C 362.736 170.180,363.190 170.000,363.610 170.000 C 364.476 170.000,367.849 168.971,368.895 168.387 C 369.277 168.174,369.862 168.000,370.195 168.000 C 370.528 168.000,370.800 167.820,370.800 167.600 C 370.800 167.380,371.340 167.200,372.000 167.200 C 372.660 167.200,373.200 167.020,373.200 166.800 C 373.200 166.580,373.740 166.400,374.400 166.400 C 375.060 166.400,375.600 166.220,375.600 166.000 C 375.600 165.780,376.050 165.600,376.600 165.600 C 377.150 165.600,377.600 165.420,377.600 165.200 C 377.600 164.980,378.140 164.800,378.800 164.800 C 379.460 164.800,380.000 164.620,380.000 164.400 C 380.000 164.180,380.450 164.000,381.000 164.000 C 381.550 164.000,382.000 163.837,382.000 163.638 C 382.000 163.438,382.900 163.151,384.000 163.000 C 385.100 162.849,386.000 162.562,386.000 162.362 C 386.000 162.163,386.349 162.000,386.776 162.000 C 387.815 162.000,388.131 161.393,387.604 160.408 C 387.350 159.933,386.766 159.600,386.186 159.600 C 385.644 159.600,385.200 159.465,385.200 159.300 C 385.200 159.135,384.075 158.653,382.700 158.229 C 381.325 157.805,380.029 157.310,379.820 157.129 C 379.611 156.948,379.026 156.800,378.520 156.800 C 378.014 156.800,377.600 156.620,377.600 156.400 C 377.600 156.180,377.251 156.000,376.824 156.000 C 376.397 156.000,375.936 155.820,375.800 155.600 C 375.664 155.380,375.203 155.200,374.776 155.200 C 374.349 155.200,374.000 155.020,374.000 154.800 C 374.000 154.580,373.460 154.400,372.800 154.400 C 372.140 154.400,371.600 154.220,371.600 154.000 C 371.600 153.780,371.240 153.600,370.800 153.600 C 370.360 153.600,370.000 153.420,370.000 153.200 C 370.000 152.980,369.550 152.800,369.000 152.800 C 368.450 152.800,368.000 152.660,368.000 152.489 C 368.000 152.181,363.812 150.800,362.880 150.800 C 362.616 150.800,362.400 150.620,362.400 150.400 C 362.400 150.180,361.950 150.000,361.400 150.000 C 360.850 150.000,360.400 149.820,360.400 149.600 C 360.400 149.380,360.128 149.200,359.795 149.200 C 359.462 149.200,358.877 149.041,358.495 148.847 C 358.113 148.652,357.260 148.271,356.600 148.000 C 355.940 147.729,355.087 147.348,354.705 147.153 C 354.323 146.959,353.738 146.800,353.405 146.800 C 353.072 146.800,352.800 146.620,352.800 146.400 C 352.800 146.180,352.260 146.000,351.600 146.000 C 350.940 146.000,350.400 145.847,350.400 145.661 C 350.400 145.310,346.735 144.000,345.754 144.000 C 345.449 144.000,345.200 143.820,345.200 143.600 C 345.200 143.380,344.750 143.200,344.200 143.200 C 343.650 143.200,343.200 143.020,343.200 142.800 C 343.200 142.580,342.851 142.400,342.424 142.400 C 341.997 142.400,341.536 142.220,341.400 142.000 C 341.264 141.780,340.713 141.600,340.176 141.600 C 339.639 141.600,339.200 141.420,339.200 141.200 C 339.200 140.980,338.928 140.800,338.595 140.800 C 338.262 140.800,337.587 140.592,337.095 140.338 C 335.169 139.342,334.783 139.200,334.005 139.200 C 333.562 139.200,333.200 139.020,333.200 138.800 C 333.200 138.580,332.851 138.400,332.424 138.400 C 331.997 138.400,331.546 138.236,331.422 138.035 C 331.297 137.834,330.477 137.548,329.598 137.400 C 328.719 137.251,328.000 136.966,328.000 136.765 C 328.000 136.564,327.460 136.400,326.800 136.400 C 326.140 136.400,325.600 136.220,325.600 136.000 C 325.600 135.780,325.240 135.600,324.800 135.600 C 324.360 135.600,324.000 135.420,324.000 135.200 C 324.000 134.980,323.550 134.800,323.000 134.800 C 322.450 134.800,322.000 134.620,322.000 134.400 C 322.000 134.180,321.651 134.000,321.224 134.000 C 320.797 134.000,320.336 133.820,320.200 133.600 C 320.064 133.380,319.513 133.200,318.976 133.200 C 318.439 133.200,318.000 133.020,318.000 132.800 C 318.000 132.580,317.728 132.400,317.395 132.400 C 316.818 132.400,316.457 132.260,314.585 131.312 C 314.136 131.085,313.011 130.771,312.085 130.614 C 311.158 130.458,310.400 130.166,310.400 129.965 C 310.400 129.764,309.950 129.600,309.400 129.600 C 308.850 129.600,308.400 129.420,308.400 129.200 C 308.400 128.980,308.040 128.800,307.600 128.800 C 307.160 128.800,306.800 128.620,306.800 128.400 C 306.800 128.180,306.260 128.000,305.600 128.000 C 304.940 128.000,304.400 127.820,304.400 127.600 C 304.400 127.380,304.040 127.200,303.600 127.200 C 303.160 127.200,302.800 127.020,302.800 126.800 C 302.800 126.580,302.350 126.400,301.800 126.400 C 301.250 126.400,300.800 126.253,300.800 126.072 C 300.800 125.892,299.900 125.500,298.800 125.200 C 297.700 124.900,296.800 124.519,296.800 124.352 C 296.800 124.185,295.990 123.928,295.000 123.779 C 294.010 123.631,293.200 123.350,293.200 123.155 C 293.200 122.960,292.845 122.800,292.412 122.800 C 291.979 122.800,290.983 122.440,290.200 122.000 C 289.417 121.560,288.421 121.200,287.988 121.200 C 287.555 121.200,287.200 121.020,287.200 120.800 C 287.200 120.580,286.840 120.400,286.400 120.400 C 285.960 120.400,285.600 120.220,285.600 120.000 C 285.600 119.780,285.060 119.600,284.400 119.600 C 283.740 119.600,283.200 119.420,283.200 119.200 C 283.200 118.980,282.851 118.800,282.424 118.800 C 281.997 118.800,281.546 118.636,281.422 118.435 C 281.297 118.234,280.477 117.948,279.598 117.800 C 278.719 117.651,278.000 117.366,278.000 117.165 C 278.000 116.964,277.550 116.800,277.000 116.800 C 276.450 116.800,276.000 116.620,276.000 116.400 C 276.000 116.180,275.561 116.000,275.024 116.000 C 274.487 116.000,273.936 115.820,273.800 115.600 C 273.664 115.380,273.203 115.200,272.776 115.200 C 272.349 115.200,272.000 115.020,272.000 114.800 C 272.000 114.580,271.550 114.400,271.000 114.400 C 270.450 114.400,270.000 114.220,270.000 114.000 C 270.000 113.780,269.651 113.600,269.224 113.600 C 268.797 113.600,268.336 113.420,268.200 113.200 C 268.064 112.980,267.513 112.800,266.976 112.800 C 266.439 112.800,266.000 112.658,266.000 112.485 C 266.000 112.312,264.830 111.817,263.400 111.385 C 261.970 110.953,260.800 110.465,260.800 110.300 C 260.800 110.135,260.260 110.000,259.600 110.000 C 258.940 110.000,258.400 109.820,258.400 109.600 C 258.400 109.380,258.040 109.200,257.600 109.200 C 257.160 109.200,256.800 109.020,256.800 108.800 C 256.800 108.580,256.350 108.400,255.800 108.400 C 255.250 108.400,254.800 108.220,254.800 108.000 C 254.800 107.780,254.361 107.600,253.824 107.600 C 253.287 107.600,252.736 107.420,252.600 107.200 C 252.464 106.980,252.003 106.800,251.576 106.800 C 251.149 106.800,250.800 106.620,250.800 106.400 C 250.800 106.180,250.350 106.000,249.800 106.000 C 249.250 106.000,248.800 105.860,248.800 105.689 C 248.800 105.381,244.612 104.000,243.680 104.000 C 243.416 104.000,243.200 103.820,243.200 103.600 C 243.200 103.380,242.750 103.200,242.200 103.200 C 241.650 103.200,241.200 103.020,241.200 102.800 C 241.200 102.580,240.840 102.400,240.400 102.400 C 239.960 102.400,239.600 102.220,239.600 102.000 C 239.600 101.780,239.060 101.600,238.400 101.600 C 237.740 101.600,237.200 101.420,237.200 101.200 C 237.200 100.980,236.851 100.800,236.424 100.800 C 235.997 100.800,235.536 100.620,235.400 100.400 C 235.264 100.180,234.803 100.000,234.376 100.000 C 233.949 100.000,233.600 99.820,233.600 99.600 C 233.600 99.380,233.238 99.200,232.795 99.200 C 232.352 99.200,231.632 99.020,231.195 98.800 C 230.758 98.580,230.062 98.232,229.649 98.027 C 229.236 97.822,228.246 97.532,227.449 97.383 C 226.652 97.233,226.000 96.951,226.000 96.755 C 226.000 96.560,225.460 96.400,224.800 96.400 C 224.140 96.400,223.599 96.265,223.597 96.100 C 223.593 95.694,221.614 94.800,220.720 94.800 C 220.324 94.800,220.000 94.620,220.000 94.400 C 220.000 94.180,219.728 94.000,219.395 94.000 C 219.062 94.000,218.477 93.841,218.095 93.647 C 217.379 93.283,215.754 92.589,214.000 91.900 C 213.450 91.684,212.707 91.360,212.349 91.181 C 211.991 91.001,211.046 90.732,210.249 90.583 C 209.452 90.433,208.800 90.151,208.800 89.955 C 208.800 89.760,208.260 89.600,207.600 89.600 C 206.940 89.600,206.400 89.420,206.400 89.200 C 206.400 88.980,206.040 88.800,205.600 88.800 C 205.160 88.800,204.800 88.620,204.800 88.400 C 204.800 88.180,204.445 88.000,204.012 88.000 C 203.579 88.000,202.583 87.640,201.800 87.200 C 201.017 86.760,200.021 86.400,199.588 86.400 C 199.155 86.400,198.800 86.220,198.800 86.000 C 198.800 85.780,197.990 85.600,197.000 85.600 C 196.010 85.600,195.200 85.780,195.200 86.000 M193.328 151.445 C 189.986 153.094,189.780 159.775,192.988 162.487 C 194.149 163.468,199.851 163.468,201.012 162.487 C 204.255 159.746,204.010 153.045,200.609 151.431 C 198.903 150.622,194.983 150.629,193.328 151.445 M348.400 181.161 C 348.070 181.334,347.397 181.684,346.905 181.938 C 346.413 182.192,345.648 182.400,345.205 182.400 C 344.762 182.400,344.400 182.580,344.400 182.800 C 344.400 183.020,343.950 183.200,343.400 183.200 L 342.400 183.200 342.400 218.600 L 342.400 254.000 346.400 254.000 L 350.400 254.000 350.400 217.400 C 350.400 177.539,350.538 180.041,348.400 181.161 M97.200 257.400 L 97.200 315.200 197.000 315.200 L 296.800 315.200 296.800 257.353 L 296.800 199.507 295.900 199.786 C 295.405 199.939,294.595 200.161,294.100 200.279 C 293.605 200.397,293.200 200.652,293.200 200.847 C 293.200 201.041,292.761 201.200,292.224 201.200 C 291.687 201.200,291.136 201.380,291.000 201.600 C 290.864 201.820,290.313 202.000,289.776 202.000 C 289.239 202.000,288.800 202.180,288.800 202.400 C 288.800 202.620,288.260 202.800,287.600 202.800 C 286.940 202.800,286.400 202.980,286.400 203.200 C 286.400 203.420,286.094 203.600,285.720 203.600 C 284.638 203.600,280.400 204.945,280.400 205.289 C 280.400 205.460,279.961 205.600,279.424 205.600 C 278.887 205.600,278.336 205.780,278.200 206.000 C 278.064 206.220,277.513 206.400,276.976 206.400 C 276.439 206.400,276.000 206.580,276.000 206.800 C 276.000 207.020,275.460 207.200,274.800 207.200 C 274.140 207.200,273.600 207.380,273.600 207.600 C 273.600 207.820,273.150 208.000,272.600 208.000 C 272.050 208.000,271.600 208.180,271.600 208.400 C 271.600 208.620,271.060 208.800,270.400 208.800 C 269.740 208.800,269.200 208.980,269.200 209.200 C 269.200 209.420,268.851 209.600,268.424 209.600 C 267.997 209.600,267.546 209.763,267.423 209.963 C 267.300 210.162,266.299 210.449,265.200 210.600 C 264.100 210.751,263.200 211.038,263.200 211.238 C 263.200 211.437,262.660 211.600,262.000 211.600 C 261.340 211.600,260.800 211.780,260.800 212.000 C 260.800 212.220,260.361 212.400,259.824 212.400 C 259.287 212.400,258.736 212.580,258.600 212.800 C 258.464 213.020,257.913 213.200,257.376 213.200 C 256.839 213.200,256.400 213.380,256.400 213.600 C 256.400 213.820,255.961 214.000,255.424 214.000 C 254.887 214.000,254.336 214.180,254.200 214.400 C 254.064 214.620,253.603 214.800,253.176 214.800 C 252.749 214.800,252.400 214.980,252.400 215.200 C 252.400 215.420,251.950 215.600,251.400 215.600 C 250.850 215.600,250.400 215.780,250.400 216.000 C 250.400 216.220,249.860 216.400,249.200 216.400 C 248.540 216.400,248.000 216.557,248.000 216.748 C 248.000 216.940,247.107 217.215,246.016 217.360 C 244.925 217.505,243.947 217.762,243.842 217.932 C 243.737 218.102,242.739 218.490,241.625 218.793 C 240.511 219.096,239.600 219.492,239.600 219.672 C 239.600 219.853,239.150 220.000,238.600 220.000 C 238.050 220.000,237.600 220.180,237.600 220.400 C 237.600 220.620,237.060 220.800,236.400 220.800 C 235.740 220.800,235.200 220.980,235.200 221.200 C 235.200 221.420,234.660 221.600,234.000 221.600 C 233.340 221.600,232.800 221.780,232.800 222.000 C 232.800 222.220,232.350 222.400,231.800 222.400 C 231.250 222.400,230.800 222.580,230.800 222.800 C 230.800 223.020,230.260 223.200,229.600 223.200 C 228.940 223.200,228.400 223.360,228.400 223.555 C 228.400 223.750,227.594 224.030,226.609 224.178 C 225.624 224.325,224.714 224.616,224.586 224.823 C 224.458 225.030,223.913 225.200,223.376 225.200 C 222.839 225.200,222.400 225.380,222.400 225.600 C 222.400 225.820,221.860 226.000,221.200 226.000 C 220.540 226.000,220.000 226.180,220.000 226.400 C 220.000 226.620,219.550 226.800,219.000 226.800 C 218.450 226.800,218.000 226.980,218.000 227.200 C 218.000 227.420,217.460 227.600,216.800 227.600 C 216.140 227.600,215.600 227.780,215.600 228.000 C 215.600 228.220,215.150 228.400,214.600 228.400 C 214.050 228.400,213.600 228.580,213.600 228.800 C 213.600 229.020,213.150 229.200,212.600 229.200 C 212.050 229.200,211.600 229.380,211.600 229.600 C 211.600 229.820,211.150 230.000,210.600 230.000 C 210.050 230.000,209.600 230.180,209.600 230.400 C 209.600 230.620,209.156 230.800,208.614 230.800 C 207.281 230.800,203.481 232.038,201.105 233.247 C 200.723 233.441,200.048 233.600,199.605 233.600 C 199.162 233.600,198.800 233.780,198.800 234.000 C 198.800 234.220,197.990 234.400,197.000 234.400 C 196.010 234.400,195.200 234.259,195.200 234.087 C 195.200 233.915,194.345 233.525,193.300 233.220 C 192.255 232.915,191.130 232.521,190.800 232.345 C 189.667 231.741,186.371 230.800,185.386 230.800 C 184.844 230.800,184.400 230.620,184.400 230.400 C 184.400 230.180,183.950 230.000,183.400 230.000 C 182.850 230.000,182.400 229.820,182.400 229.600 C 182.400 229.380,182.051 229.200,181.624 229.200 C 181.197 229.200,180.736 229.020,180.600 228.800 C 180.464 228.580,179.913 228.400,179.376 228.400 C 178.839 228.400,178.400 228.220,178.400 228.000 C 178.400 227.780,177.860 227.600,177.200 227.600 C 176.540 227.600,176.000 227.420,176.000 227.200 C 176.000 226.980,175.550 226.800,175.000 226.800 C 174.450 226.800,174.000 226.620,174.000 226.400 C 174.000 226.180,173.460 226.000,172.800 226.000 C 172.140 226.000,171.600 225.820,171.600 225.600 C 171.600 225.380,171.161 225.200,170.624 225.200 C 170.087 225.200,169.542 225.030,169.414 224.823 C 169.286 224.616,168.376 224.325,167.391 224.178 C 166.406 224.030,165.600 223.750,165.600 223.555 C 165.600 223.360,165.060 223.200,164.400 223.200 C 163.740 223.200,163.200 223.020,163.200 222.800 C 163.200 222.580,162.750 222.400,162.200 222.400 C 161.650 222.400,161.200 222.220,161.200 222.000 C 161.200 221.780,160.660 221.600,160.000 221.600 C 159.340 221.600,158.800 221.420,158.800 221.200 C 158.800 220.980,158.438 220.800,157.995 220.800 C 157.552 220.800,156.877 220.641,156.495 220.447 C 155.326 219.852,153.877 219.277,152.200 218.743 C 151.320 218.463,150.402 218.091,150.160 217.917 C 149.917 217.743,148.882 217.486,147.860 217.346 C 146.837 217.206,146.000 216.936,146.000 216.746 C 146.000 216.556,145.460 216.400,144.800 216.400 C 144.140 216.400,143.600 216.220,143.600 216.000 C 143.600 215.780,143.328 215.600,142.995 215.600 C 142.662 215.600,142.032 215.420,141.595 215.200 C 141.158 214.980,140.442 214.620,140.005 214.400 C 139.568 214.180,138.848 214.000,138.405 214.000 C 137.962 214.000,137.600 213.820,137.600 213.600 C 137.600 213.380,137.161 213.200,136.624 213.200 C 136.087 213.200,135.536 213.020,135.400 212.800 C 135.264 212.580,134.713 212.400,134.176 212.400 C 133.639 212.400,133.200 212.220,133.200 212.000 C 133.200 211.780,132.660 211.600,132.000 211.600 C 131.340 211.600,130.800 211.440,130.800 211.245 C 130.800 211.050,129.994 210.770,129.009 210.622 C 128.024 210.475,127.114 210.184,126.986 209.977 C 126.858 209.770,126.313 209.600,125.776 209.600 C 125.239 209.600,124.800 209.420,124.800 209.200 C 124.800 208.980,124.361 208.800,123.824 208.800 C 123.287 208.800,122.736 208.620,122.600 208.400 C 122.464 208.180,121.913 208.000,121.376 208.000 C 120.839 208.000,120.400 207.820,120.400 207.600 C 120.400 207.380,119.860 207.200,119.200 207.200 C 118.540 207.200,118.000 207.020,118.000 206.800 C 118.000 206.580,117.550 206.400,117.000 206.400 C 116.450 206.400,116.000 206.220,116.000 206.000 C 116.000 205.780,115.638 205.600,115.195 205.600 C 114.752 205.600,114.077 205.426,113.695 205.213 C 112.636 204.622,109.271 203.600,108.386 203.600 C 107.954 203.600,107.600 203.420,107.600 203.200 C 107.600 202.980,107.060 202.800,106.400 202.800 C 105.740 202.800,105.200 202.620,105.200 202.400 C 105.200 202.180,104.750 202.000,104.200 202.000 C 103.650 202.000,103.200 201.820,103.200 201.600 C 103.200 201.380,102.838 201.200,102.395 201.200 C 101.952 201.200,101.187 200.992,100.695 200.738 C 98.818 199.767,98.393 199.600,97.805 199.600 C 97.268 199.600,97.200 206.059,97.200 257.400 M337.200 287.207 L 337.200 315.215 346.500 315.107 L 355.800 315.000 355.903 287.100 L 356.005 259.200 346.603 259.200 L 337.200 259.200 337.200 287.207 " stroke="none" fill="#040404" fill-rule="evenodd"></path><path id="path1" d="" stroke="none" fill="#080404" fill-rule="evenodd"></path><path id="path2" d="" stroke="none" fill="#080404" fill-rule="evenodd"></path><path id="path3" d="" stroke="none" fill="#080404" fill-rule="evenodd"></path><path id="path4" d="" stroke="none" fill="#080404" fill-rule="evenodd"></path></g></svg>